<svg width="130" height="130" viewBox="0 0 130 130" fill="none" xmlns="http://www.w3.org/2000/svg">
<circle cx="65" cy="65" r="62" stroke="#2F80ED" stroke-width="6"/>
<path d="M43.9515 84.8H93.4714V38.6C93.4714 34.9601 90.5077 32 86.8635 32H43.9119C39.9273 32 34 34.6367 34 41.9V88.1C34 95.3633 39.9273 98 43.9119 98H93.4714V91.4H43.9515C42.4251 91.3604 40.6079 90.7598 40.6079 88.1C40.6079 87.7667 40.6377 87.4697 40.6872 87.1991C41.0573 85.2983 42.6167 84.833 43.9515 84.8ZM52.6608 50.6186C54.036 49.2625 55.8907 48.5021 57.8233 48.5021C59.7558 48.5021 61.6105 49.2625 62.9857 50.6186L63.7258 51.3413L64.4626 50.6186C65.8384 49.2623 67.6936 48.5018 69.6267 48.5018C71.5597 48.5018 73.415 49.2623 74.7908 50.6186C75.4732 51.2741 76.0161 52.0605 76.387 52.9307C76.7578 53.8008 76.949 54.7368 76.949 55.6824C76.949 56.6281 76.7578 57.5641 76.387 58.4342C76.0161 59.3044 75.4732 60.0908 74.7908 60.7463L63.7291 71.6L52.6641 60.7463C51.981 60.0912 51.4375 59.3051 51.0661 58.435C50.6947 57.565 50.5031 56.629 50.5028 55.6832C50.5025 54.7373 50.6935 53.8012 51.0643 52.9309C51.4351 52.0606 51.9782 51.2741 52.6608 50.6186Z" fill="#2F80ED"/>
</svg>
