<svg width="561" height="457" viewBox="0 0 561 457" fill="none" xmlns="http://www.w3.org/2000/svg">
<path opacity="0.1" d="M35.7899 425.068C43.8494 425.068 50.383 424.17 50.383 423.062C50.383 421.955 43.8494 421.057 35.7899 421.057C27.7303 421.057 21.1968 421.955 21.1968 423.062C21.1968 424.17 27.7303 425.068 35.7899 425.068Z" fill="#3DB4F8"/>
<path opacity="0.1" d="M101.639 417.396C109.699 417.396 116.233 416.498 116.233 415.39C116.233 414.283 109.699 413.385 101.639 413.385C93.5799 413.385 87.0464 414.283 87.0464 415.39C87.0464 416.498 93.5799 417.396 101.639 417.396Z" fill="#3DB4F8"/>
<path opacity="0.1" d="M13.4144 440.622C19.1454 440.622 23.7912 439.984 23.7912 439.198C23.7912 438.412 19.1454 437.774 13.4144 437.774C7.68345 437.774 3.0376 438.412 3.0376 439.198C3.0376 439.984 7.68345 440.622 13.4144 440.622Z" fill="#3DB4F8"/>
<path opacity="0.1" d="M71.4418 439.198C77.1727 439.198 81.8186 438.56 81.8186 437.774C81.8186 436.988 77.1727 436.35 71.4418 436.35C65.7108 436.35 61.0649 436.988 61.0649 437.774C61.0649 438.56 65.7108 439.198 71.4418 439.198Z" fill="#3DB4F8"/>
<path d="M36.1063 422.611C36.1063 422.611 15.6353 355.538 39.3053 328.674C57.0182 308.572 77.1162 310.979 86.1196 313.465C88.4492 314.086 90.6161 315.205 92.4703 316.745C94.3245 318.285 95.8216 320.21 96.8582 322.386C100.006 329.165 99.4354 340.188 77.2179 353.046C40.0174 374.577 37.7058 404.108 37.7058 404.108L36.1063 422.611Z" fill="#3DB4F8"/>
<path d="M82.915 322.979C82.915 322.979 22.5758 341.838 36.1063 422.611" stroke="#565987" stroke-miterlimit="10"/>
<path d="M47.6758 329.742C47.6758 329.742 55.984 335.335 53.3276 343.747" stroke="#565987" stroke-miterlimit="10"/>
<path d="M76.862 334.713C76.862 334.713 71.7753 329.55 65.6035 332.397" stroke="#565987" stroke-miterlimit="10"/>
<path d="M53.0112 360.702C53.0112 360.702 44.0926 356.182 41.7866 361.832" stroke="#565987" stroke-miterlimit="10"/>
<path d="M30.9404 370.125C30.9404 370.125 37.6379 369.594 37.7622 372.798" stroke="#565987" stroke-miterlimit="10"/>
<path d="M35.2925 423.147C35.2925 423.147 59.2677 374.397 65.8521 375.464C68.9776 375.973 70.4188 379.046 71.0744 382.137C71.8869 386.142 71.4305 390.301 69.7688 394.035C66.3777 401.803 57.2104 416.633 35.2925 423.147Z" fill="#3DB4F8"/>
<path d="M65.6545 384.719C65.6545 384.719 40.4924 421.193 35.6318 422.791" stroke="#565987" stroke-miterlimit="10"/>
<path d="M67.9714 390.408H62.0991" stroke="#565987" stroke-miterlimit="10"/>
<path d="M60.9351 403.752L51.7339 404.148" stroke="#565987" stroke-miterlimit="10"/>
<path d="M55.334 393.08L56.3344 397.871" stroke="#565987" stroke-miterlimit="10"/>
<path d="M45.5449 407.667L45.7258 412.023" stroke="#565987" stroke-miterlimit="10"/>
<path d="M35.9878 423.147C35.9878 423.147 12.0126 374.397 5.42822 375.464C2.30274 375.973 0.861518 379.046 0.205903 382.137C-0.600223 386.131 -0.141929 390.278 1.51714 394.001C4.9139 401.803 14.0529 416.633 35.9878 423.147Z" fill="#3DB4F8"/>
<path d="M5.60889 384.719C5.60889 384.719 30.771 421.193 35.6316 422.791" stroke="#565987" stroke-miterlimit="10"/>
<path d="M3.29736 390.408H9.16964" stroke="#565987" stroke-miterlimit="10"/>
<path d="M10.3281 403.752L19.535 404.148" stroke="#565987" stroke-miterlimit="10"/>
<path d="M15.9349 393.08L14.9346 397.871" stroke="#565987" stroke-miterlimit="10"/>
<path d="M25.7238 407.667L25.543 412.023" stroke="#565987" stroke-miterlimit="10"/>
<path d="M77.15 434.531C77.8037 434 78.2807 433.283 78.5178 432.475C78.6227 432.069 78.5851 431.639 78.4113 431.258C78.2374 430.876 77.9378 430.566 77.5626 430.379C76.6866 430.04 75.7483 430.65 75.0419 431.26C74.3354 431.87 73.5159 432.577 72.5889 432.447C73.0621 432.011 73.4147 431.461 73.6128 430.849C73.8108 430.238 73.8475 429.585 73.7193 428.955C73.6804 428.694 73.571 428.448 73.4028 428.243C72.9168 427.724 72.0351 427.95 71.4529 428.356C69.5991 429.656 69.0848 432.17 69.0735 434.435C68.9717 433.605 68.9603 432.766 69.0396 431.933C69.0396 431.096 68.8022 430.164 68.0957 429.718C67.6585 429.478 67.1643 429.361 66.6658 429.379C65.8293 429.379 64.9081 429.43 64.3372 430.04C63.6308 430.797 63.8116 432.062 64.4277 432.899C65.1149 433.673 65.9291 434.324 66.8354 434.825C67.5149 435.239 68.094 435.799 68.5309 436.464C68.5815 436.557 68.6231 436.656 68.6553 436.757H73.8719C75.0616 436.169 76.1647 435.42 77.15 434.531Z" fill="#3DB4F8"/>
<path d="M16.2457 434.531C16.8994 434 17.3764 433.283 17.6135 432.475C17.7184 432.069 17.6809 431.639 17.507 431.258C17.3331 430.876 17.0335 430.566 16.6583 430.379C15.7823 430.04 14.844 430.65 14.1376 431.26C13.4311 431.87 12.6116 432.577 11.6847 432.447C12.1578 432.011 12.5104 431.461 12.7085 430.849C12.9065 430.238 12.9432 429.585 12.815 428.955C12.7761 428.694 12.6667 428.448 12.4985 428.243C12.0125 427.724 11.1308 427.95 10.5486 428.356C8.69482 429.656 8.1805 432.17 8.1692 434.435C8.06739 433.605 8.05602 432.766 8.13529 431.933C8.13529 431.096 7.90356 430.164 7.19708 429.718C6.75761 429.478 6.26178 429.361 5.76151 429.379C4.93069 429.379 4.00378 429.43 3.43295 430.04C2.72646 430.797 2.90732 432.062 3.52337 432.899C4.21058 433.673 5.02481 434.324 5.93107 434.825C6.61062 435.239 7.18974 435.799 7.62662 436.464C7.67722 436.557 7.71885 436.656 7.75097 436.757H12.9676C14.1573 436.169 15.2604 435.42 16.2457 434.531Z" fill="#3DB4F8"/>
<path d="M102.589 394.843C102.589 394.843 104.545 397.402 101.685 401.261C98.8252 405.119 96.474 408.379 97.4235 410.786C97.4235 410.786 101.736 403.617 105.246 403.515C108.755 403.413 106.45 399.153 102.589 394.843Z" fill="#3DB4F8"/>
<path opacity="0.1" d="M102.589 394.843C102.76 395.09 102.895 395.36 102.991 395.645C106.416 399.667 108.236 403.419 104.946 403.515C101.877 403.605 98.2035 409.085 97.3218 410.47C97.35 410.577 97.3839 410.679 97.4235 410.786C97.4235 410.786 101.736 403.617 105.246 403.515C108.755 403.413 106.45 399.153 102.589 394.843Z" fill="black"/>
<path d="M106.223 398.103C106.223 399.001 106.121 399.73 105.997 399.73C105.873 399.73 105.771 399.001 105.771 398.103C105.771 397.204 105.901 397.628 106.025 397.628C106.15 397.628 106.223 397.204 106.223 398.103Z" fill="#FFD037"/>
<path d="M107.472 399.176C106.681 399.605 105.991 399.865 105.935 399.741C105.878 399.616 106.466 399.176 107.257 398.763C108.049 398.351 107.732 398.645 107.794 398.763C107.857 398.882 108.263 398.746 107.472 399.176Z" fill="#FFD037"/>
<path d="M92.2576 394.843C92.2576 394.843 90.302 397.402 93.1618 401.261C96.0217 405.119 98.3785 408.379 97.4233 410.786C97.4233 410.786 93.111 403.617 89.6012 403.515C86.0914 403.413 88.4199 399.153 92.2576 394.843Z" fill="#3DB4F8"/>
<path opacity="0.1" d="M92.2576 394.843C92.088 395.09 91.9548 395.36 91.8619 395.645C88.4369 399.667 86.6113 403.419 89.9007 403.515C92.9697 403.605 96.649 409.085 97.5307 410.47C97.4968 410.577 97.4629 410.679 97.4233 410.786C97.4233 410.786 93.111 403.617 89.6012 403.515C86.0914 403.413 88.4199 399.153 92.2576 394.843Z" fill="black"/>
<path d="M88.6235 398.103C88.6235 399.001 88.7253 399.73 88.8496 399.73C88.974 399.73 89.0757 399.001 89.0757 398.103C89.0757 397.204 88.9514 397.628 88.827 397.628C88.7027 397.628 88.6235 397.204 88.6235 398.103Z" fill="#FFD037"/>
<path d="M87.3743 399.176C88.1655 399.605 88.8551 399.865 88.9172 399.741C88.9794 399.616 88.3803 399.176 87.5947 398.763C86.8091 398.351 87.1143 398.645 87.0295 398.763C86.9447 398.882 86.5887 398.746 87.3743 399.176Z" fill="#FFD037"/>
<path d="M89.2451 410.447C89.2451 410.447 94.7161 410.283 96.3608 409.108C98.0055 407.933 104.771 406.532 105.183 408.413C105.596 410.294 113.396 417.769 107.224 417.82C101.052 417.87 92.8849 416.859 91.2402 415.859C89.5955 414.859 89.2451 410.447 89.2451 410.447Z" fill="#A8A8A8"/>
<path opacity="0.2" d="M107.337 417.164C101.165 417.215 92.9923 416.204 91.3476 415.204C90.0929 414.441 89.5955 411.707 89.4316 410.441H89.2451C89.2451 410.441 89.5955 414.854 91.2402 415.854C92.8849 416.854 101.052 417.865 107.224 417.814C109.01 417.814 109.62 417.164 109.586 416.227C109.332 416.803 108.659 417.153 107.337 417.164Z" fill="black"/>
<path opacity="0.1" d="M310.114 457C412.94 457 496.298 453.221 496.298 448.559C496.298 443.898 412.94 440.119 310.114 440.119C207.288 440.119 123.931 443.898 123.931 448.559C123.931 453.221 207.288 457 310.114 457Z" fill="#3DB4F8"/>
<path d="M291.147 196.207C291.147 196.207 303.015 218.653 303.937 221.856C304.177 222.745 304.694 223.535 305.414 224.11C306.133 224.685 307.018 225.016 307.938 225.054C307.938 225.054 319.762 227.879 322.588 228.257C325.414 228.636 349.909 230.703 349.909 230.703C349.909 230.703 356.126 230.895 356.878 228.636C357.567 226.568 369.577 215.704 376.529 225.184C377.17 226.061 377.595 227.076 377.77 228.148C377.945 229.22 377.864 230.318 377.535 231.353C376.258 235.421 373.635 241.878 370.821 237.861C366.864 232.212 362.264 233.799 362.264 236.811C362.264 239.822 355.934 238.703 353.865 239.127C352.735 239.359 348.846 240.393 345.484 241.296C341.58 242.351 337.582 243.015 333.547 243.279C326.872 243.715 317.032 244.076 313.545 242.76C309.334 241.161 301.992 240.794 298.85 240.709C297.809 240.684 296.804 240.323 295.985 239.681C291.623 236.268 287.933 232.074 285.105 227.314C280.205 218.839 270.127 201.291 270.806 196.207C271.484 191.122 291.147 196.207 291.147 196.207Z" fill="#EFB7B9"/>
<path opacity="0.05" d="M291.147 196.207C291.147 196.207 303.015 218.653 303.937 221.856C304.177 222.745 304.694 223.535 305.414 224.11C306.133 224.685 307.018 225.016 307.938 225.054C307.938 225.054 319.762 227.879 322.588 228.257C325.414 228.636 349.909 230.703 349.909 230.703C349.909 230.703 356.126 230.895 356.878 228.636C357.567 226.568 369.577 215.704 376.529 225.184C377.17 226.061 377.595 227.076 377.77 228.148C377.945 229.22 377.864 230.318 377.535 231.353C376.258 235.421 373.635 241.878 370.821 237.861C366.864 232.212 362.264 233.799 362.264 236.811C362.264 239.822 355.934 238.703 353.865 239.127C352.735 239.359 348.846 240.393 345.484 241.296C341.58 242.351 337.582 243.015 333.547 243.279C326.872 243.715 317.032 244.076 313.545 242.76C309.334 241.161 301.992 240.794 298.85 240.709C297.809 240.684 296.804 240.323 295.985 239.681C291.623 236.268 287.933 232.074 285.105 227.314C280.205 218.839 270.127 201.291 270.806 196.207C271.484 191.122 291.147 196.207 291.147 196.207Z" fill="black"/>
<path d="M473.543 406.464C473.522 418.469 468.868 430.003 460.551 438.663C452.234 447.323 440.894 452.441 428.896 452.95C416.897 453.46 405.164 449.322 396.141 441.399C387.119 433.476 381.503 422.379 380.463 410.419C380.395 409.662 380.344 408.905 380.322 408.159V408.119C380.299 407.558 380.288 406.993 380.288 406.424C380.288 394.063 385.2 382.207 393.945 373.466C402.689 364.725 414.549 359.815 426.915 359.815C439.282 359.815 451.142 364.725 459.886 373.466C468.631 382.207 473.543 394.063 473.543 406.424V406.464Z" fill="#65617D"/>
<path d="M426.915 431.859C440.962 431.859 452.349 420.477 452.349 406.436C452.349 392.395 440.962 381.012 426.915 381.012C412.869 381.012 401.482 392.395 401.482 406.436C401.482 420.477 412.869 431.859 426.915 431.859Z" fill="#DCE0ED"/>
<path d="M426.915 421.69C435.343 421.69 442.175 414.86 442.175 406.436C442.175 398.011 435.343 391.182 426.915 391.182C418.487 391.182 411.655 398.011 411.655 406.436C411.655 414.86 418.487 421.69 426.915 421.69Z" fill="#65617D"/>
<path d="M304.462 317.923L192.183 320.183V303.64C193.189 290.324 206.877 285.652 219.312 284.189C229.033 283.086 238.875 283.823 248.323 286.364C272.145 292.669 287.32 293.889 294.798 294.008C296.439 294.032 298.022 294.623 299.278 295.679C300.534 296.735 301.387 298.192 301.693 299.804C302.049 301.697 302.399 303.759 302.727 305.793C302.976 307.386 303.213 308.957 303.428 310.42C304.05 314.635 304.462 317.923 304.462 317.923Z" fill="#65617D"/>
<path d="M394.039 409.447H160.792C158.991 409.465 157.225 408.954 155.713 407.977C154.2 406.999 153.009 405.599 152.286 403.95C150.528 399.752 152.987 397.074 155.609 395.504C160.976 392.324 165.045 387.349 167.094 381.459C169.581 374.114 172.011 362.623 172.966 344.668C173.95 326.098 180.675 316.917 187.944 312.465C197.331 306.725 207.623 308.878 207.623 308.878L302.196 309.635C303.879 310.398 305.436 311.413 306.814 312.646C315.24 320.488 302.953 330.725 302.953 330.725C276.576 358.595 296.544 386.843 296.544 386.843H344.935C353.977 386.889 362.818 384.184 370.284 379.086C376.823 374.566 379.327 370.199 380.333 367.555C381.079 365.532 381.836 363.515 382.741 361.561C395.435 334.041 380.124 289.273 373.517 272.533C371.878 268.37 370.776 265.94 370.776 265.94L385.951 264.81L395.559 264.082H395.655C416.804 300.544 424.666 338.013 427.305 365.775C427.554 368.391 427.758 370.928 427.922 373.363C428.221 377.992 427.566 382.634 425.999 387.001C424.431 391.367 421.983 395.365 418.807 398.748C415.63 402.131 411.793 404.826 407.533 406.666C403.273 408.506 398.68 409.453 394.039 409.447Z" fill="#3DB4F8"/>
<path opacity="0.1" d="M303.434 310.42H192.183V305.793H302.733C302.982 307.358 303.219 308.928 303.434 310.42Z" fill="black"/>
<path opacity="0.1" d="M306.819 312.68H188.842C188.535 312.681 188.232 312.619 187.949 312.499C197.337 306.759 207.629 308.911 207.629 308.911L302.201 309.669C303.885 310.432 305.442 311.447 306.819 312.68Z" fill="black"/>
<path d="M307.803 306.895H147.561C146.284 306.895 145.25 307.929 145.25 309.205V309.211C145.25 310.487 146.284 311.522 147.561 311.522H307.803C309.079 311.522 310.114 310.487 310.114 309.211V309.205C310.114 307.929 309.079 306.895 307.803 306.895Z" fill="#DCE0ED"/>
<path opacity="0.1" d="M427.305 365.786C421.93 371.628 417.974 373.928 418.16 367.764C418.726 349.12 385.945 264.827 385.945 264.827L395.638 264.093C416.793 300.527 424.66 337.996 427.305 365.786Z" fill="black"/>
<path opacity="0.1" d="M473.261 401.328C467.694 402.662 460.827 404.018 452.349 405.283C449.195 405.746 445.804 406.191 442.175 406.616C433.511 407.645 423.49 408.543 411.915 409.232C408.637 409.428 405.233 409.607 401.702 409.769C395.09 410.07 388.012 410.3 380.468 410.458L380.327 408.198V408.159C390.868 403.905 407.456 392.554 410.124 362.99C416.785 360.424 423.947 359.42 431.058 360.056C438.169 360.693 445.038 362.952 451.138 366.66C457.238 370.368 462.405 375.426 466.241 381.444C470.078 387.462 472.481 394.281 473.266 401.374L473.261 401.328Z" fill="black"/>
<path d="M371.533 409.447C371.533 409.447 425.056 403.639 406.619 322.12C406.619 322.12 433.064 346.357 449.517 359.826C465.97 373.295 495.297 391.865 495.297 391.865C495.297 391.865 477.788 408.221 371.533 409.447Z" fill="#3DB4F8"/>
<path opacity="0.1" d="M371.533 409.447C371.533 409.447 425.056 403.639 406.619 322.12C406.619 322.12 433.064 346.357 449.517 359.826C465.97 373.295 495.297 391.865 495.297 391.865C495.297 391.865 477.788 408.221 371.533 409.447Z" fill="white"/>
<path d="M228.541 453.045C254.293 453.045 275.169 432.178 275.169 406.436C275.169 380.694 254.293 359.826 228.541 359.826C202.789 359.826 181.913 380.694 181.913 406.436C181.913 432.178 202.789 453.045 228.541 453.045Z" fill="#65617D"/>
<path d="M228.541 431.859C242.587 431.859 253.974 420.477 253.974 406.436C253.974 392.395 242.587 381.012 228.541 381.012C214.494 381.012 203.107 392.395 203.107 406.436C203.107 420.477 214.494 431.859 228.541 431.859Z" fill="#DCE0ED"/>
<path d="M228.541 421.69C236.969 421.69 243.801 414.86 243.801 406.436C243.801 398.011 236.969 391.182 228.541 391.182C220.113 391.182 213.281 398.011 213.281 406.436C213.281 414.86 220.113 421.69 228.541 421.69Z" fill="#65617D"/>
<path opacity="0.1" d="M280.821 392.436C280.821 362.34 256.908 337.939 227.411 337.939C197.913 337.939 174 362.34 174 392.436C174 393.709 174.044 394.969 174.13 396.215H280.691C280.777 394.969 280.821 393.709 280.821 392.436Z" fill="black"/>
<path d="M278.842 391.498C278.842 362.515 255.817 339.018 227.41 339.018C199.004 339.018 175.979 362.515 175.979 391.498C175.979 392.724 176.024 393.933 176.103 395.136H278.718C278.797 393.933 278.842 392.724 278.842 391.498Z" fill="#3DB4F8"/>
<path opacity="0.1" d="M278.842 391.498C278.842 392.34 278.842 393.193 278.78 394.006C278.78 394.385 278.741 394.758 278.718 395.136H176.103C176.103 394.758 176.058 394.385 176.041 394.006C176.001 393.176 175.979 392.311 175.979 391.498C175.979 362.515 199.004 339.018 227.41 339.018C255.817 339.018 278.842 362.515 278.842 391.498Z" fill="white"/>
<path opacity="0.1" d="M278.78 394.035C278.78 394.413 278.74 394.786 278.718 395.165H176.103C176.103 394.786 176.057 394.413 176.041 394.035H278.78Z" fill="black"/>
<path opacity="0.1" d="M285.625 396.266H159.509C156.178 396.266 153.479 398.964 153.479 402.292C153.479 405.619 156.178 408.317 159.509 408.317H285.625C288.955 408.317 291.655 405.619 291.655 402.292C291.655 398.964 288.955 396.266 285.625 396.266Z" fill="black"/>
<path d="M285.625 395.136H159.509C156.178 395.136 153.479 397.834 153.479 401.162C153.479 404.49 156.178 407.187 159.509 407.187H285.625C288.955 407.187 291.655 404.49 291.655 401.162C291.655 397.834 288.955 395.136 285.625 395.136Z" fill="#DCE0ED"/>
<path opacity="0.1" d="M418.106 316.541C421.514 315.001 421.132 306.801 417.253 298.226C413.375 289.651 407.468 283.948 404.061 285.488C400.653 287.029 401.035 295.228 404.914 303.803C408.793 312.378 414.699 318.081 418.106 316.541Z" fill="black"/>
<path d="M418.671 315.974C422.079 314.434 421.697 306.234 417.818 297.659C413.939 289.084 408.033 283.382 404.626 284.922C401.218 286.462 401.6 294.661 405.479 303.236C409.357 311.811 415.264 317.514 418.671 315.974Z" fill="#DCE0ED"/>
<path opacity="0.1" d="M395.553 264.093V272.946H378.315C376.71 272.947 375.107 272.819 373.522 272.562C371.883 268.398 370.781 265.968 370.781 265.968L385.956 264.839L395.553 264.093Z" fill="black"/>
<path d="M395.553 271.793H378.315C363.173 271.793 350.903 260.494 350.903 246.5V244.155C350.903 230.189 363.173 218.867 378.315 218.867L395.553 220.432V271.793Z" fill="#3DB4F8"/>
<path d="M367.152 233.839C367.152 233.839 377.467 239.347 371.533 248.669C371.533 248.669 364.253 260.601 352.808 259.471L348.643 233.839C348.643 233.839 362.348 232.568 367.152 233.839Z" fill="#3DB4F8"/>
<path opacity="0.1" d="M363.19 233.342C364.83 233.404 366.435 233.833 367.886 234.598C369.338 235.363 370.6 236.443 371.578 237.76C373.415 240.302 374.511 244.008 371.544 248.669C371.544 248.669 364.264 260.601 352.819 259.471L348.654 233.839C348.654 233.839 357.228 233.02 363.19 233.342Z" fill="black"/>
<path opacity="0.1" d="M394.988 220.432H398.311C401.102 220.432 403.779 221.541 405.752 223.513C407.726 225.486 408.835 228.162 408.835 230.952V261.279C408.835 264.069 407.726 266.745 405.752 268.718C403.779 270.691 401.102 271.799 398.311 271.799H394.988V220.432Z" fill="black"/>
<path d="M395.553 220.432H398.877C401.668 220.432 404.344 221.541 406.318 223.513C408.292 225.486 409.4 228.162 409.4 230.952V261.279C409.4 264.069 408.292 266.745 406.318 268.718C404.344 270.691 401.668 271.799 398.877 271.799H395.553V220.432Z" fill="#DCE0ED"/>
<path d="M273.168 286.397C273.168 286.397 275.83 287.369 279.385 288.725C285.037 290.9 293.006 294.075 295.775 295.815C298.545 297.556 308.871 300.414 316.603 302.426C322.334 303.91 328.236 304.637 334.157 304.589C340.171 304.533 347.456 304.476 349.468 304.476C349.82 304.473 350.172 304.5 350.519 304.555C352.633 304.906 352.548 306.324 352.497 306.663V306.736C340.063 314.267 324.99 347.979 324.052 353.628C323.345 357.866 317.134 369.611 314.07 375.227C313.042 377.108 312.375 378.3 312.375 378.3L316.145 382.628L327.07 387.526L337.43 392.046C337.43 392.046 348.36 392.611 348.547 392.046C348.733 391.481 348.733 385.645 348.733 385.645C347.403 384.786 346.141 383.827 344.958 382.775C342.451 380.593 340.123 378.214 337.995 375.662C331.97 368.504 344.025 354.758 344.025 354.758L367.198 324.629C367.198 324.629 369.08 321.239 378.123 307.68C387.166 294.121 378.123 286.776 378.123 286.776L362.207 280.172C334.604 269.844 301.309 261.567 301.309 261.567L300.834 261.505L293.775 260.624L273.168 286.397Z" fill="#EFB7B9"/>
<path d="M344.285 387.526C344.285 387.526 346.263 389.859 344.783 390.069C343.302 390.278 339.413 389.436 339.413 389.436L314.754 376.442C314.754 376.442 312.07 374.532 311.437 378.278C310.804 382.023 310.374 381.667 310.374 381.667C310.374 381.667 307.124 388.656 310.374 390.102C313.624 391.549 333.145 397.272 333.145 397.272C333.145 397.272 361.478 403.701 364.163 396.283C366.847 388.865 359.359 390.142 359.359 390.142C359.359 390.142 350.033 387.882 346.851 383.362C346.829 383.362 342.239 384.634 344.285 387.526Z" fill="#444053"/>
<path opacity="0.05" d="M378.1 286.776L362.185 280.172C334.581 269.844 301.286 261.567 301.286 261.567L300.811 261.505L293.752 260.624L273.168 286.397C273.168 286.397 275.83 287.369 279.385 288.725C285.037 290.9 293.006 294.075 295.775 295.815C298.545 297.556 308.871 300.414 316.603 302.426C322.334 303.91 328.236 304.637 334.157 304.589C340.171 304.533 347.456 304.476 349.468 304.476C349.82 304.473 350.172 304.5 350.519 304.555C352.633 304.906 352.548 306.324 352.497 306.663V306.736C340.063 314.267 324.99 347.979 324.052 353.628C323.345 357.866 317.134 369.611 314.07 375.227L313.658 375.984C312.838 375.848 311.815 376.142 311.454 378.278C310.815 382.018 310.391 381.668 310.391 381.668C310.391 381.668 307.141 388.656 310.391 390.102C313.641 391.549 333.146 397.272 333.146 397.272C333.146 397.272 361.478 403.701 364.163 396.283C366.848 388.865 359.359 390.142 359.359 390.142C359.359 390.142 350.033 387.882 346.851 383.362C346.569 383.445 346.294 383.547 346.026 383.668C345.693 383.396 345.337 383.103 344.958 382.775C342.451 380.593 340.123 378.214 337.995 375.662C331.97 368.504 344.025 354.758 344.025 354.758L367.198 324.629C367.198 324.629 369.08 321.239 378.123 307.68C387.166 294.121 378.1 286.776 378.1 286.776Z" fill="black"/>
<path d="M254.189 160.399L255.048 161.484L255.528 162.088L258.524 165.857C258.524 165.857 265.674 168.15 271.941 169.636C278.469 171.179 284.036 171.851 279.611 168.162C276.864 165.874 276.683 162.043 277.684 157.936C278.526 154.775 279.732 151.723 281.278 148.84C281.501 148.411 281.721 147.993 281.94 147.586C283.343 144.99 284.898 142.479 286.597 140.066C282.578 137.284 278.41 134.725 274.112 132.4C268.935 129.722 264.684 128.552 267.38 133.851C269.11 137.241 268.545 141.049 266.928 144.693C266.804 144.981 266.668 145.258 266.527 145.558C265.076 148.381 263.284 151.017 261.192 153.405C259.048 155.919 256.706 158.258 254.189 160.399Z" fill="#EFB7B9"/>
<path d="M289.988 246.46L293.82 249.957L297.522 264.194H291.344L284.522 255.324L289.988 246.46Z" fill="#444053"/>
<path opacity="0.1" d="M284.522 255.324L288.648 260.686L291.344 264.194H297.522L296.889 261.759L294.193 251.387L293.82 249.957L289.988 246.46L284.754 254.946L284.522 255.324Z" fill="black"/>
<path opacity="0.1" d="M284.522 255.324L288.648 260.686L291.344 264.194H297.522L296.889 261.759L294.193 251.387L293.82 249.957L289.988 246.46L284.754 254.946L284.522 255.324Z" fill="black"/>
<path d="M263.989 292.787C263.989 292.787 266.651 293.759 270.206 295.115C275.858 297.29 283.827 300.465 286.597 302.205C289.366 303.945 299.692 306.804 307.424 308.815C313.155 310.302 319.057 311.031 324.978 310.985C330.992 310.928 338.277 310.872 340.289 310.872C340.641 310.869 340.993 310.895 341.341 310.951C343.454 311.301 343.37 312.719 343.319 313.058V313.132C330.885 320.663 315.811 354.374 314.873 360.024C314.166 364.261 307.955 376.007 304.892 381.623C303.863 383.504 303.196 384.696 303.196 384.696L306.966 389.024L317.885 393.916L328.245 398.436C328.245 398.436 339.176 399.001 339.362 398.436C339.549 397.871 339.549 392.035 339.549 392.035C338.219 391.176 336.956 390.217 335.773 389.165C333.267 386.983 330.938 384.604 328.81 382.052C322.786 374.894 334.841 361.148 334.841 361.148L358.014 331.019C358.014 331.019 359.896 327.629 368.939 314.07C377.982 300.51 368.939 293.166 368.939 293.166L354.436 284.878C331.828 271.132 299.986 263.223 299.986 263.223L299.511 263.161L292.452 262.279L263.989 292.787Z" fill="#EFB7B9"/>
<path opacity="0.1" d="M303.19 384.69L306.96 389.018L317.885 393.916L328.245 398.436C328.245 398.436 339.176 399.001 339.362 398.436C339.549 397.871 339.549 392.035 339.549 392.035C338.219 391.176 336.956 390.217 335.773 389.165C334.604 389.792 333.275 390.967 334.558 392.786C334.558 392.786 336.536 395.114 335.056 395.328C333.575 395.543 329.686 394.696 329.686 394.696L305.027 381.702L304.886 381.605C303.846 383.498 303.19 384.69 303.19 384.69Z" fill="black"/>
<path d="M335.106 393.916C335.106 393.916 337.085 396.244 335.598 396.458C334.112 396.673 330.229 395.82 330.229 395.82L305.576 382.826C305.576 382.826 302.891 380.922 302.252 384.662C301.614 388.402 301.195 388.052 301.195 388.052C301.195 388.052 297.946 395.046 301.195 396.492C304.445 397.939 323.944 403.639 323.944 403.639C323.944 403.639 352.271 410.063 354.956 402.65C357.64 395.238 350.152 396.504 350.152 396.504C350.152 396.504 340.826 394.244 337.65 389.724C337.667 389.747 333.055 391.018 335.106 393.916Z" fill="#444053"/>
<path opacity="0.1" d="M265.493 143.258C268.759 145.518 273.744 149.094 278 149.094C279.098 149.094 280.194 149.007 281.278 148.834C282.852 145.794 284.629 142.863 286.597 140.06C286.597 140.06 261.729 122.733 267.38 133.846C269.246 137.541 267.409 139.354 265.493 143.258Z" fill="black"/>
<path d="M257.653 127.626C257.651 131.018 258.498 134.356 260.118 137.337C261.738 140.317 264.079 142.844 266.928 144.688C267.567 145.104 268.232 145.482 268.917 145.817C272.878 147.792 277.375 148.422 281.726 147.612C286.077 146.802 290.045 144.596 293.028 141.328C296.012 138.061 297.848 133.91 298.259 129.505C298.67 125.1 297.632 120.681 295.304 116.918C292.976 113.156 289.484 110.255 285.357 108.655C281.231 107.055 276.695 106.844 272.438 108.054C268.181 109.263 264.434 111.827 261.766 115.357C259.098 118.887 257.654 123.19 257.653 127.614V127.626Z" fill="#EFB7B9"/>
<path opacity="0.1" d="M263.989 292.787C263.989 292.787 266.651 293.759 270.206 295.115C272.439 293.149 274.728 291.251 275.683 290.906C277.757 290.149 284.539 286.194 284.353 285.064C284.166 283.934 287.179 279.607 289.813 278.85C292.446 278.093 290.943 274.144 290.943 274.144C290.943 274.144 296.03 272.262 297.296 269.624C298.562 266.985 302.439 263.596 301.116 263.788C300.543 263.695 299.996 263.481 299.511 263.161L292.452 262.279L263.989 292.787Z" fill="black"/>
<path d="M248.537 286.008C248.537 286.008 257.207 293.166 257.608 296.364C258.009 299.561 263.797 299.381 263.797 299.381C263.797 299.381 272.467 291.092 274.535 290.341C276.604 289.59 283.392 285.629 283.205 284.499C283.019 283.369 286.031 279.042 288.665 278.285C291.299 277.528 289.795 273.579 289.795 273.579C289.795 273.579 294.882 271.697 296.148 269.059C297.414 266.42 301.291 263.031 299.969 263.223C299.596 263.274 298.403 262.658 296.889 261.759C295.029 260.63 292.672 259.099 290.751 257.805C288.716 256.426 287.162 255.33 287.162 255.33C287.162 255.33 286.274 255.172 284.754 254.952C276.553 253.765 249.842 250.737 243.642 260.601C242.816 261.905 242.196 263.329 241.806 264.822C239.03 275.33 248.537 286.008 248.537 286.008Z" fill="#444053"/>
<path opacity="0.1" d="M257.603 263.172C257.603 263.172 248.752 268.166 245.451 268.166C242.15 268.166 257.603 263.172 257.603 263.172Z" fill="black"/>
<path opacity="0.1" d="M263.514 266.985C263.514 266.985 250.334 271.415 250.334 274.895C250.334 278.375 249.102 265.573 263.514 266.985Z" fill="black"/>
<path opacity="0.1" d="M295.069 247.036L294.882 247.291C294.967 247.225 295.032 247.137 295.069 247.036Z" fill="black"/>
<path opacity="0.1" d="M254.189 160.399L255.048 161.484L255.528 162.088L258.524 165.857C258.524 165.857 265.674 168.15 271.941 169.636C278.469 171.179 284.036 171.851 279.611 168.162C276.864 165.874 276.683 162.043 277.684 157.936L277.486 157.682C277.486 157.682 277.684 161.489 275.429 161.563C272.388 161.659 272.348 160.636 269.545 159.456C265.934 157.93 262.232 155.382 261.192 153.399C259.048 155.916 256.706 158.256 254.189 160.399Z" fill="black"/>
<path opacity="0.1" d="M241.806 264.805C243.348 265.463 245.084 265.504 246.655 264.918C252.493 263.031 261.728 258.488 266.058 260.477C269.528 262.07 283.505 262.025 288.665 260.686C289.948 260.353 290.683 259.94 290.57 259.454C290.497 258.895 290.565 258.326 290.768 257.799C291.367 255.884 292.995 253.223 294.21 251.387L293.837 249.957L290.005 246.46L284.771 254.935C276.57 253.748 249.86 250.72 243.659 260.584C242.827 261.887 242.202 263.311 241.806 264.805Z" fill="black"/>
<path d="M237.991 260.398C237.991 260.398 240.252 265.669 246.09 263.788C251.928 261.906 261.163 257.358 265.493 259.347C269.822 261.336 290.553 260.771 289.988 258.324C289.423 255.878 295.075 248.155 295.075 248.155C295.075 248.155 291.989 247.59 290.078 237.517C289.796 236.048 289.541 234.376 289.327 232.477C288.86 228.59 288.75 224.668 288.999 220.76C289.762 209.856 293.583 205.404 293.583 205.404C293.583 205.404 298.856 199.382 294.334 191.094C291.966 186.749 282.409 174.71 282.279 169.343C282.16 164.473 277.503 158.812 277.503 158.812C277.503 158.812 277.701 162.619 275.446 162.693C272.405 162.789 272.365 161.766 269.562 160.586C265.442 158.846 261.209 155.778 260.932 153.727C260.932 153.727 243.66 152.863 239.89 170.376C236.12 187.89 237.443 197.495 238.008 199.568C238.573 201.642 243.468 228.381 239.511 239.681C235.555 250.98 237.991 260.398 237.991 260.398Z" fill="#A36468"/>
<path opacity="0.1" d="M266.154 229.63C269.269 234.883 273.437 239.436 278.396 243.003C281.703 243.03 285.006 243.251 288.287 243.664C288.004 242.195 287.722 240.522 287.535 238.624C287.068 234.737 286.958 230.814 287.207 226.907C286.665 226.635 286.186 226.25 285.804 225.779C285.422 225.307 285.145 224.759 284.992 224.172C284.048 220.969 275.644 205.715 275.644 205.715C275.644 205.715 255.981 200.63 255.297 205.715C254.613 210.8 261.254 221.155 266.154 229.63Z" fill="black"/>
<path d="M272.67 196.207C272.67 196.207 284.539 218.653 285.46 221.856C285.7 222.745 286.218 223.535 286.937 224.11C287.657 224.685 288.541 225.016 289.462 225.054C289.462 225.054 301.286 227.879 304.112 228.257C306.938 228.636 331.45 230.703 331.45 230.703C331.45 230.703 337.667 230.895 338.418 228.636C339.108 226.568 351.118 215.704 358.07 225.184C358.711 226.061 359.136 227.076 359.311 228.148C359.485 229.22 359.405 230.318 359.076 231.353C357.799 235.421 355.176 241.878 352.361 237.861C348.405 232.212 343.805 233.799 343.805 236.811C343.805 239.822 337.474 238.703 335.406 239.127C334.276 239.359 330.387 240.393 327.024 241.296C323.112 242.353 319.104 243.017 315.059 243.279C308.384 243.715 298.544 244.076 295.057 242.76C290.852 241.161 283.511 240.794 280.362 240.709C279.321 240.684 278.316 240.323 277.497 239.681C273.137 236.267 269.45 232.074 266.623 227.314C261.723 218.839 251.645 201.291 252.324 196.207C253.002 191.122 272.67 196.207 272.67 196.207Z" fill="#EFB7B9"/>
<path opacity="0.1" d="M268.714 165.105C268.714 165.105 275.072 175.653 278.017 183.184C280.962 190.715 284.539 203.902 284.539 203.902L266.826 201.828L265.323 199.382C265.323 199.382 252.674 207.291 254.183 210.681C255.692 214.071 250.792 205.596 251.171 195.992C251.549 186.388 249.809 169.247 251.171 165.105C252.533 160.964 264.549 161.902 268.714 165.105Z" fill="black"/>
<path d="M251.194 194.862C250.815 204.466 255.715 212.941 254.206 209.551C252.697 206.161 265.346 198.252 265.346 198.252L266.832 200.698L284.54 202.771C284.54 202.771 280.962 189.585 278.017 182.054C276.248 177.794 274.225 173.643 271.959 169.625C270.144 166.331 268.714 163.975 268.714 163.975C266.278 162.094 261.107 160.992 256.981 161.252C256.338 161.289 255.698 161.366 255.065 161.484C253.37 161.817 252.002 162.461 251.397 163.478C251.305 163.636 251.229 163.802 251.171 163.975C249.815 168.117 251.555 185.258 251.194 194.862Z" fill="#A36468"/>
<path opacity="0.1" d="M243.281 221.156C243.281 221.156 250.769 231.466 253.03 231.749C253.013 231.771 243.405 229.63 243.281 221.156Z" fill="black"/>
<path opacity="0.1" d="M243.281 235.845C243.281 235.845 257.41 250.11 261.932 250.251C266.453 250.392 243.281 235.845 243.281 235.845Z" fill="black"/>
<path opacity="0.1" d="M243.281 241.799C243.281 241.799 252.324 252.392 252.889 252.392C253.454 252.392 243.123 248.72 243.281 241.799Z" fill="black"/>
<path opacity="0.1" d="M251.38 163.478C252.834 163.262 254.238 162.791 255.528 162.088C256.014 161.834 256.495 161.552 256.964 161.252C258.817 160.012 260.544 158.593 262.118 157.015C264.718 154.49 267.312 151.733 268.386 148.269C268.628 147.471 268.805 146.655 268.918 145.829C269.562 141.484 269.019 136.688 272.128 133.733C272.712 133.182 273.382 132.73 274.112 132.394C278.52 130.298 284.912 131.654 288.202 127.874C290.293 125.479 290.242 122.151 291.847 119.547C292.548 118.417 293.837 117.439 294.978 116.4C293.316 113.87 291.109 111.742 288.519 110.173C285.929 108.604 283.022 107.633 280.009 107.33C276.995 107.027 273.953 107.4 271.102 108.422C268.252 109.444 265.665 111.09 263.532 113.238C261.399 115.387 259.772 117.984 258.77 120.841C257.769 123.698 257.418 126.742 257.744 129.752C258.069 132.762 259.062 135.661 260.651 138.238C262.24 140.815 264.385 143.005 266.928 144.648C266.804 144.936 266.668 145.213 266.527 145.512C262.644 153.422 254.189 160.36 254.189 160.36L255.048 161.444C253.335 161.834 251.985 162.461 251.38 163.478Z" fill="black"/>
<path d="M287.072 127.32C283.245 131.705 275.203 129.151 270.992 133.168C267.296 136.688 268.765 142.829 267.256 147.704C266.182 151.168 263.588 153.919 260.988 156.45C257.202 160.134 252.358 163.874 247.181 162.817C244.112 162.19 241.105 159.896 238.138 160.953C236.663 161.484 235.606 162.761 234.504 163.885C230.76 167.699 225.894 170.215 220.617 171.066C219.574 171.301 218.486 171.25 217.469 170.919C215.887 170.275 215.033 168.546 213.592 167.625C210.766 165.817 207.137 167.67 204.204 169.286C196.001 173.726 186.945 176.369 177.64 177.038C168.336 177.707 158.995 176.388 150.24 173.167L154.813 170.907C153.84 168.924 151.212 168.489 149.539 167.037C146.092 164.049 148.121 158.071 151.766 155.331C155.412 152.591 160.131 151.637 163.906 149.077C164.675 148.557 165.455 147.868 165.528 146.947C165.516 146.271 165.302 145.614 164.912 145.06C162.9 141.518 160.674 137.716 161.126 133.665C161.815 127.45 168.603 123.631 174.837 123.196C181.071 122.761 187.243 124.637 193.488 124.744C195.749 124.784 198.117 124.563 200.056 123.394C202.763 121.767 204.125 118.665 205.77 115.97C208.705 111.185 212.912 107.309 217.921 104.773C223.573 101.92 229.971 100.92 235.849 98.5581C241.851 96.1513 247.311 92.3435 253.59 90.8124C262.706 88.5526 272.473 91.5073 280.346 96.6146C284.138 99.0722 296.25 106.959 296.171 112.004C296.109 114.999 292.215 116.62 290.74 118.97C289.112 121.597 289.163 124.925 287.072 127.32Z" fill="#965D7B"/>
<g opacity="0.1">
<path opacity="0.1" d="M164.358 142.23C164.745 142.785 164.959 143.441 164.974 144.117C164.952 144.355 164.885 144.587 164.776 144.8C163.115 141.874 161.385 138.772 161.108 135.507C161.843 137.84 163.137 140.083 164.358 142.23Z" fill="black"/>
<path opacity="0.1" d="M148.985 164.207C150.653 165.659 153.281 166.094 154.259 168.077L152.642 168.879C151.553 168.367 150.517 167.748 149.551 167.032C148.938 166.486 148.459 165.805 148.154 165.044C147.848 164.282 147.722 163.46 147.787 162.642C148.075 163.24 148.483 163.773 148.985 164.207Z" fill="black"/>
<path opacity="0.1" d="M203.65 166.461C206.584 164.845 210.218 162.992 213.038 164.8C214.474 165.721 215.333 167.45 216.915 168.094C217.93 168.425 219.016 168.476 220.058 168.241C225.336 167.39 230.204 164.874 233.95 161.06C235.046 159.93 236.103 158.659 237.584 158.128C240.534 157.071 243.541 159.365 246.627 159.992C251.804 161.049 256.642 157.309 260.434 153.625C263.034 151.1 265.623 148.343 266.697 144.88C268.211 140.004 266.742 133.863 270.438 130.343C274.66 126.326 282.686 128.88 286.518 124.496C288.603 122.1 288.558 118.773 290.163 116.168C291.52 113.97 295.035 112.411 295.532 109.761C295.921 110.453 296.136 111.228 296.16 112.021C296.098 115.016 292.204 116.637 290.728 118.987C289.123 121.592 289.168 124.919 287.083 127.315C283.251 131.699 275.214 129.145 271.003 133.162C267.307 136.682 268.777 142.823 267.262 147.699C266.188 151.162 263.599 153.913 261 156.444C257.207 160.128 252.369 163.868 247.192 162.812C244.118 162.184 241.111 159.891 238.149 160.947C236.668 161.478 235.611 162.755 234.515 163.879C230.769 167.693 225.901 170.209 220.623 171.06C219.581 171.295 218.495 171.245 217.48 170.913C215.898 170.269 215.039 168.54 213.603 167.619C210.777 165.811 207.149 167.665 204.215 169.28C196.012 173.72 186.956 176.363 177.652 177.032C168.347 177.701 159.006 176.382 150.251 173.162L153.411 171.597C161.711 174.089 170.421 174.919 179.043 174.037C187.664 173.156 196.027 170.581 203.65 166.461Z" fill="black"/>
</g>
<path opacity="0.1" d="M343.319 313.052L348.072 310.753V309.855C348.072 309.51 344.28 310.273 341.341 310.923C343.455 311.295 343.37 312.713 343.319 313.052Z" fill="black"/>
<path d="M347.45 261.098C353.774 261.098 358.901 254.863 358.901 247.172C358.901 239.481 353.774 233.246 347.45 233.246C341.126 233.246 336 239.481 336 247.172C336 254.863 341.126 261.098 347.45 261.098Z" fill="#3DB4F8"/>
<path d="M237.239 229.048L218.831 247.195L158.316 246.138L174.955 229.048H237.239Z" fill="#DDA2A6"/>
<path d="M237.239 291.126V229.048L218.831 247.195V307.94L237.239 291.126Z" fill="#B77B7F"/>
<path d="M158.316 246.138V307.94H218.831V247.195L158.316 246.138Z" fill="#DDA2A6"/>
<path opacity="0.3" d="M158.316 246.138V307.94H218.831V247.195L158.316 246.138Z" fill="white"/>
<path d="M213.914 264.206L168.908 256.483L163.042 286.019L209.375 294.527L213.914 264.206Z" fill="#DCE0ED"/>
<path d="M205.023 271.104L174.769 266.353L174.012 270.296L204.266 275.426L205.023 271.104Z" fill="#3DB4F8"/>
<path d="M196.704 279.539L179.494 277.042L178.737 281.42L196.704 283.94V279.539Z" fill="#3DB4F8"/>
<path d="M229.796 261.629L228.976 237.189L224.246 241.856L225.071 266.353L229.796 261.629Z" fill="#65617D"/>
<path d="M168.868 235.302L227.02 236.087L228.976 237.189L224.245 241.856L222.612 240.895L165.014 239.263L168.868 235.302Z" fill="#65617D"/>
</svg>
