<svg width="352" height="312" viewBox="0 0 352 312" fill="none" xmlns="http://www.w3.org/2000/svg">
<path fill-rule="evenodd" clip-rule="evenodd" d="M182.334 6.95919C222.46 10.015 257.918 28.2507 285.782 58.2764C318.158 93.165 353.134 134.387 344.735 181.963C336.077 231.003 289.91 259.809 246.413 281.266C203.186 302.59 155.322 315.507 110.749 297.39C61.9996 277.575 19.5842 237.616 8.65339 184.626C-2.13242 132.339 21.0944 78.5104 57.8436 40.9177C89.9483 8.07615 137.305 3.53 182.334 6.95919Z" fill="white" stroke="#444053" stroke-width="11"/>
<path d="M118.739 157.937C105.724 157.937 95.4674 152.952 87.9683 142.982C80.4693 133.011 76.7197 120.934 76.7197 106.748C76.7197 92.4662 80.3459 80.4128 87.5983 70.5875C94.8508 60.7622 105.081 55.8545 118.289 55.8643C132.295 55.8643 142.848 61.0407 149.948 71.3936C157.048 81.7465 160.599 93.7287 160.602 107.34C160.602 120.854 156.927 132.667 149.578 142.779C142.229 152.891 131.949 157.944 118.739 157.937ZM119.12 146.721C127.682 146.721 134.082 143.12 138.318 135.918C142.555 128.716 144.673 119.637 144.673 108.68C144.673 96.4844 142.505 86.4984 138.169 78.7221C133.834 70.9457 127.184 67.0564 118.22 67.0539C101.183 67.0539 92.6639 80.1134 92.6639 106.232C92.6639 133.227 101.48 146.724 119.113 146.721H119.12ZM123.408 254.123H104.584L227.819 57.863H246.288L123.408 254.123ZM232.431 256.137C219.22 256.137 208.921 251.106 201.534 241.045C194.147 230.985 190.438 218.905 190.408 204.808C190.408 190.622 194.008 178.617 201.21 168.791C208.411 158.966 218.667 154.058 231.977 154.068C245.884 154.068 256.363 159.245 263.415 169.597C270.466 179.95 273.993 191.931 273.996 205.54C273.996 218.966 270.346 230.756 263.045 240.913C255.744 251.07 245.537 256.144 232.423 256.137H232.431ZM232.652 244.634C241.173 244.634 247.538 241.095 251.747 234.015C255.955 226.936 258.059 217.893 258.059 206.888C258.059 195.109 255.93 185.231 251.67 177.253C247.411 169.276 240.775 165.281 231.763 165.269C214.626 165.269 206.058 178.328 206.058 204.447C206.053 231.241 214.915 244.637 232.644 244.634H232.652Z" fill="#3DB4F8"/>
<path d="M118.739 157.937C105.724 157.937 95.4674 152.952 87.9683 142.982C80.4693 133.011 76.7197 120.934 76.7197 106.748C76.7197 92.4662 80.3459 80.4128 87.5983 70.5875C94.8508 60.7622 105.081 55.8545 118.289 55.8643C132.295 55.8643 142.848 61.0407 149.948 71.3936C157.048 81.7465 160.599 93.7287 160.602 107.34C160.602 120.854 156.927 132.667 149.578 142.779C142.229 152.891 131.949 157.944 118.739 157.937ZM119.12 146.721C127.682 146.721 134.082 143.12 138.318 135.918C142.555 128.716 144.673 119.637 144.673 108.68C144.673 96.4844 142.505 86.4984 138.169 78.7221C133.834 70.9457 127.184 67.0564 118.22 67.0539C101.183 67.0539 92.6639 80.1134 92.6639 106.232C92.6639 133.227 101.48 146.724 119.113 146.721H119.12ZM123.408 254.123H104.584L227.819 57.863H246.288L123.408 254.123ZM232.431 256.137C219.22 256.137 208.921 251.106 201.534 241.045C194.147 230.985 190.438 218.905 190.408 204.808C190.408 190.622 194.008 178.617 201.21 168.791C208.411 158.966 218.667 154.058 231.977 154.068C245.884 154.068 256.363 159.245 263.415 169.597C270.466 179.95 273.993 191.931 273.996 205.54C273.996 218.966 270.346 230.756 263.045 240.913C255.744 251.07 245.537 256.144 232.423 256.137H232.431ZM232.652 244.634C241.173 244.634 247.538 241.095 251.747 234.015C255.955 226.936 258.059 217.893 258.059 206.888C258.059 195.109 255.93 185.231 251.67 177.253C247.411 169.276 240.775 165.281 231.763 165.269C214.626 165.269 206.058 178.328 206.058 204.447C206.053 231.241 214.915 244.637 232.644 244.634H232.652Z" fill="#3DB4F8"/>
<path opacity="0.15" d="M118.739 157.937C105.724 157.937 95.4674 152.952 87.9683 142.982C80.4693 133.011 76.7197 120.934 76.7197 106.748C76.7197 92.4662 80.3459 80.4128 87.5983 70.5875C94.8508 60.7622 105.081 55.8545 118.289 55.8643C132.295 55.8643 142.848 61.0407 149.948 71.3936C157.048 81.7465 160.599 93.7287 160.602 107.34C160.602 120.854 156.927 132.667 149.578 142.779C142.229 152.891 131.949 157.944 118.739 157.937ZM119.12 146.721C127.682 146.721 134.082 143.12 138.318 135.918C142.555 128.716 144.673 119.637 144.673 108.68C144.673 96.4844 142.505 86.4984 138.169 78.7221C133.834 70.9457 127.184 67.0564 118.22 67.0539C101.183 67.0539 92.6639 80.1134 92.6639 106.232C92.6639 133.227 101.48 146.724 119.113 146.721H119.12ZM123.408 254.123H104.584L227.819 57.863H246.288L123.408 254.123ZM232.431 256.137C219.22 256.137 208.921 251.106 201.534 241.045C194.147 230.985 190.438 218.905 190.408 204.808C190.408 190.622 194.008 178.617 201.21 168.791C208.411 158.966 218.667 154.058 231.977 154.068C245.884 154.068 256.363 159.245 263.415 169.597C270.466 179.95 273.993 191.931 273.996 205.54C273.996 218.966 270.346 230.756 263.045 240.913C255.744 251.07 245.537 256.144 232.423 256.137H232.431ZM232.652 244.634C241.173 244.634 247.538 241.095 251.747 234.015C255.955 226.936 258.059 217.893 258.059 206.888C258.059 195.109 255.93 185.231 251.67 177.253C247.411 169.276 240.775 165.281 231.763 165.269C214.626 165.269 206.058 178.328 206.058 204.447C206.053 231.241 214.915 244.637 232.644 244.634H232.652Z" fill="black"/>
<path d="M106.885 157.937C93.8708 157.937 83.6139 152.952 76.1148 142.982C68.6157 133.011 64.8662 120.934 64.8662 106.748C64.8662 92.4662 68.4924 80.4128 75.7448 70.5875C82.9972 60.7622 93.2274 55.8545 106.435 55.8643C120.442 55.8643 130.995 61.0407 138.095 71.3936C145.195 81.7465 148.746 93.7287 148.748 107.34C148.748 120.854 145.074 132.667 137.725 142.779C130.376 152.891 120.096 157.944 106.885 157.937ZM107.267 146.721C115.829 146.721 122.228 143.12 126.465 135.918C130.701 128.716 132.819 119.637 132.819 108.68C132.819 96.4844 130.652 86.4984 126.316 78.7221C121.98 70.9457 115.331 67.0564 106.367 67.0539C89.3291 67.0539 80.8103 80.1134 80.8103 106.232C80.8103 133.227 89.6267 146.724 107.259 146.721H107.267ZM111.554 254.123H92.7303L215.965 57.863H234.435L111.554 254.123ZM220.577 256.137C207.367 256.137 197.068 251.106 189.681 241.045C182.293 230.985 178.585 218.905 178.554 204.808C178.554 190.622 182.155 178.617 189.356 168.791C196.558 158.966 206.813 154.058 220.123 154.068C234.03 154.068 244.51 159.245 251.561 169.597C258.613 179.95 262.14 191.931 262.142 205.54C262.142 218.966 258.492 230.756 251.191 240.913C243.891 251.07 233.683 256.144 220.569 256.137H220.577ZM220.798 244.634C229.32 244.634 235.685 241.095 239.893 234.015C244.102 226.936 246.206 217.893 246.206 206.888C246.206 195.109 244.076 185.231 239.817 177.253C235.557 169.276 228.919 165.281 219.902 165.269C202.765 165.269 194.197 178.328 194.197 204.447C194.197 231.241 203.061 244.637 220.791 244.634H220.798Z" fill="#3DB4F8"/>
</svg>
