<svg width="17" height="16" viewBox="0 0 17 16" fill="none" xmlns="http://www.w3.org/2000/svg">
<path fill-rule="evenodd" clip-rule="evenodd" d="M7.84148 12.0486L4.98999 6.4623L6.17305 5.86279L8.47851 9.97759L11.876 8.47883L12.6041 9.56884L7.84148 12.0486Z" fill="#0D4085"/>
<path fill-rule="evenodd" clip-rule="evenodd" d="M6.08197 14.5011L2.25977 6.08073L4.23154 4.99072L7.81106 11.5853L13.0893 9.07827L13.6354 10.6043L6.08197 14.5011Z" fill="#2B75DA"/>
<path d="M10.2985 6.21713C12.968 4.88187 15.0308 3.90086 15.3342 3.84636C15.6072 3.79186 15.9712 3.90086 16.0015 4.17336C16.0319 4.93637 16.2745 9.89593 16.4565 10.5772C16.0925 10.9859 7.20438 15.346 5.80898 16L0.591365 5.67213C0.470025 5.45413 0.409355 5.23612 0.50036 5.01812C0.712705 4.50036 7.96276 0.0858117 8.38745 0.0040607C8.66046 -0.0231896 8.96381 0.0858116 9.02448 0.358315L10.2985 6.21713ZM15.3645 9.70518L15.0611 4.88187C14.6364 5.15437 9.9952 7.3344 9.9952 7.3344C9.84353 7.36165 9.69185 7.3344 9.57051 7.2799C9.44917 7.2254 9.35817 7.1164 9.32783 6.98014L8.0841 1.23033L2.35079 4.69112C2.41146 4.77287 2.50247 4.85462 2.5328 4.96362L6.84036 13.6837L14.8791 9.86868C15.0308 9.78693 15.1825 9.73243 15.3645 9.70518Z" fill="#2F80ED"/>
</svg>
