<svg width="16" height="16" viewBox="0 0 16 16" fill="none" xmlns="http://www.w3.org/2000/svg">
<circle cx="8" cy="8" r="8" fill="white"/>
<path fill-rule="evenodd" clip-rule="evenodd" d="M5.7347 3.46216C6.03078 4.33411 5.97725 11.7542 5.6674 12.7995L5.62098 12.9559H6.76154H7.90232L7.78016 12.4866C7.67932 12.0991 7.65733 11.7019 7.654 10.2163L7.65 8.41569L8.56977 8.4602C9.07553 8.48468 9.59083 8.52407 9.715 8.54744L9.94067 8.59017V7.7398V6.88921L9.74965 6.93128C9.64459 6.95442 9.12928 6.99404 8.60442 7.01963L7.65 7.06592V5.80339V4.54086L8.67372 4.54242C9.58017 4.54398 10.0006 4.58693 10.4526 4.72469C10.5946 4.76786 10.5752 4.01742 10.4191 3.41142C10.332 3.07381 10.4475 3.08917 7.81858 3.06491L5.59277 3.04443L5.7347 3.46216Z" fill="#2D9CDB"/>
</svg>
