<svg width="682" height="489" viewBox="0 0 682 489" fill="none" xmlns="http://www.w3.org/2000/svg">
<path d="M64.7844 422.95C64.7844 422.95 -24.7575 382.265 6.6985 354.051C38.1545 325.838 64.7844 422.95 64.7844 422.95Z" fill="#E6E6E6"/>
<path d="M63.0954 433.13C63.0954 433.13 20.7561 297.291 83.1023 303.787C145.448 310.283 63.0954 433.13 63.0954 433.13Z" fill="#E6E6E6"/>
<path d="M33.3174 421.099L35.052 443.849L35.0795 444.242C35.0778 447.795 35.2571 451.345 35.6164 454.879C37.9704 478.084 48.0888 488.66 59.9142 488.66C71.7395 488.66 81.4173 478.084 83.7714 454.879C84.1307 451.345 84.3099 447.795 84.3083 444.242L84.3221 443.925L84.3289 443.849L86.0704 421.099H33.3174Z" fill="#E6E6E6"/>
<path d="M84.22 444.236L84.2132 444.312L84.1995 444.632C84.2011 448.209 84.0227 451.783 83.665 455.342H35.7308C35.3731 451.783 35.1947 448.209 35.1963 444.632L35.1689 444.236H84.22Z" fill="white"/>
<path d="M649.695 437.758C649.695 437.758 580.62 405.718 604.886 383.5C629.152 361.282 649.695 437.758 649.695 437.758Z" fill="#E6E6E6"/>
<path d="M649.01 445.162C649.01 445.162 617.597 339.401 663.853 344.459C710.11 349.517 649.01 445.162 649.01 445.162Z" fill="#E6E6E6"/>
<path d="M625.633 435.906L626.941 453.359L626.962 453.66C626.961 456.385 627.096 459.109 627.367 461.82C629.143 479.621 636.776 487.734 645.697 487.734C654.618 487.734 661.919 479.621 663.694 461.82C663.965 459.109 664.101 456.385 664.099 453.66L664.11 453.417L664.115 453.359L665.429 435.906H625.633Z" fill="#E6E6E6"/>
<path d="M664.503 452.565L664.498 452.623L664.487 452.862C664.488 455.545 664.35 458.226 664.074 460.895H626.992C626.716 458.226 626.578 455.545 626.579 452.862L626.558 452.565H664.503Z" fill="white"/>
<path d="M217.144 146.106V115.687H212.285V146.106C210.891 146.655 209.737 147.659 209.02 148.945C208.303 150.231 208.068 151.721 208.355 153.157C208.642 154.594 209.434 155.888 210.594 156.819C211.754 157.75 213.211 158.259 214.714 158.259C216.218 158.259 217.674 157.75 218.835 156.819C219.995 155.888 220.786 154.594 221.073 153.157C221.361 151.721 221.126 150.231 220.409 148.945C219.692 147.659 218.537 146.655 217.144 146.106Z" fill="#E6E6E6"/>
<path d="M227.822 456.376H195.171V59.2314H182.43V456.376H149.779C145.91 456.376 142.078 457.14 138.503 458.622C134.928 460.105 131.68 462.279 128.944 465.019C126.208 467.759 124.038 471.011 122.557 474.591C121.076 478.171 120.314 482.008 120.314 485.883V485.883H257.287V485.883C257.287 482.008 256.525 478.171 255.044 474.591C253.563 471.011 251.393 467.759 248.657 465.019C245.921 462.279 242.672 460.105 239.097 458.622C235.523 457.14 231.691 456.376 227.822 456.376Z" fill="#E6E6E6"/>
<path d="M120.314 118.463H257.287L248.911 13.3349C248.605 9.70982 246.958 6.33106 244.296 3.86328C241.634 1.39551 238.149 0.0173641 234.526 0H143.075C139.452 0.0173633 135.966 1.3955 133.304 3.86327C130.642 6.33104 128.996 9.70979 128.69 13.3348L120.314 118.463Z" fill="#3DB4F8"/>
<path d="M310.842 302.769C309.521 302.555 308.169 302.599 306.865 302.897C305.561 303.196 304.331 303.743 303.247 304.506C302.163 305.27 301.245 306.236 300.548 307.347C299.851 308.458 299.388 309.692 299.187 310.979L295.232 336.189L308.687 339.655L318.546 316.167C319.119 314.802 319.369 313.329 319.276 311.858C319.183 310.387 318.751 308.955 318.011 307.668C317.271 306.381 316.242 305.273 315.001 304.425C313.76 303.577 312.339 303.011 310.842 302.769Z" fill="#A0616A"/>
<path d="M311.276 336.195C318.589 365.28 315.442 391.882 288.21 412.769C255.548 403.759 233.824 382.018 220.57 350.423C219.746 348.458 219.328 346.347 219.342 344.216C219.356 342.086 219.801 339.98 220.65 338.026C221.5 336.073 222.736 334.312 224.284 332.849C225.832 331.387 227.661 330.254 229.659 329.518C232.661 328.413 235.928 328.249 239.025 329.048C242.122 329.847 244.903 331.571 246.998 333.99L279.045 371.008L294.079 333.682L311.276 336.195Z" fill="#3DB4F8"/>
<path d="M478.035 487.734C447.987 486.149 429.321 475.905 424.801 454.897L429.64 446.087L485.048 471.151C486.447 471.784 487.625 472.815 488.431 474.114C489.238 475.413 489.638 476.921 489.58 478.447C489.521 479.972 489.007 481.445 488.103 482.68C487.199 483.914 485.946 484.854 484.503 485.379L478.035 487.734Z" fill="#E6E6E6"/>
<path d="M454.84 488.004C439.427 487.533 424.605 487.679 410.56 488.638C408.096 488.808 405.666 487.991 403.795 486.365C401.925 484.739 400.765 482.435 400.569 479.952L399.726 469.322L387.781 450.049L398.133 439.609C415.529 457.082 434.608 471.76 457.267 480.484C457.996 480.987 458.543 481.715 458.827 482.558C459.111 483.401 459.117 484.313 458.843 485.16C458.57 486.006 458.032 486.741 457.311 487.253C456.589 487.766 455.722 488.029 454.84 488.004Z" fill="#E6E6E6"/>
<path d="M370.924 412.921C351.212 448.001 331.825 471.65 306.325 484.309C274.951 494.608 252.022 480.964 234.149 452.978L285.988 418.87L293.565 426.405L362.229 374.436C363.906 372.856 366.143 371.999 368.452 372.05C370.761 372.101 372.957 373.056 374.562 374.708L433.13 446.235L425.952 458.133L370.924 412.921Z" fill="#2F2E41"/>
<path d="M388.253 453.491L360.942 412.548L367.368 400.738L403.515 437.744L388.253 453.491Z" fill="#2F2E41"/>
<path d="M231.836 322.071C246.914 322.071 259.138 309.848 259.138 294.769C259.138 279.691 246.914 267.467 231.836 267.467C216.757 267.467 204.534 279.691 204.534 294.769C204.534 309.848 216.757 322.071 231.836 322.071Z" fill="#A0616A"/>
<path d="M238.777 344.283L209.161 334.21C213.544 327.287 215.465 319.102 214.617 310.965H238.777C237.403 322.788 237.197 334.001 238.777 344.283Z" fill="#A0616A"/>
<path d="M303.561 417.171C299.041 419.019 298.711 425.011 294.438 427.047C273.779 436.89 251.922 444.877 236.919 459.044C201.858 435.334 169.36 361.695 211.531 329.475C225.926 337.863 238.784 343.866 238.505 329.475L303.561 417.171Z" fill="#3DB4F8"/>
<path opacity="0.2" d="M285.977 386.185L271.058 381.048L241.622 403.57L228.426 357.023C227.511 353.794 226.028 355.431 223.899 357.673C221.679 355.66 218.919 354.311 215.942 353.785C212.966 353.259 209.898 353.577 207.101 354.703C204.303 355.829 201.893 357.716 200.153 360.14C198.414 362.564 197.418 365.426 197.283 368.386C195.714 402.15 206.105 430.715 231.944 452.565C265.741 445.475 280.084 423.1 285.977 394.087L284.379 393.044C284.968 390.802 285.501 388.515 285.977 386.185Z" fill="black"/>
<path d="M235.626 258.972C244.587 261.013 254.786 263.903 255.358 266.59C264.576 268.905 271.534 274.45 272.955 282.904C273.073 283.634 273.03 284.382 272.827 285.094C272.624 285.806 272.268 286.465 271.782 287.025C271.296 287.585 270.693 288.032 270.015 288.334C269.337 288.636 268.601 288.787 267.858 288.775C262.845 288.711 255.32 288.232 250.35 286.164C235.915 295.433 233.492 319.543 239.796 335.953L229.876 335.047L219.613 305.105L216.991 333.87L194.353 330.887L197.269 294.207C198.165 285.561 201.117 277.254 205.881 269.973C206.375 269.242 206.916 268.543 207.501 267.881C210.945 264.004 215.378 261.128 220.33 259.559C225.282 257.991 230.568 257.788 235.626 258.972Z" fill="#2F2E41"/>
<path d="M286.902 350.074L311.335 379.452L347.985 335.216L323.221 304.487L286.902 350.074Z" fill="#3F3D56"/>
<path d="M341.791 335.953L312.816 312.816C314.463 308.96 322.365 310.245 322.365 310.245L345.046 332.687C345.836 333.468 346.513 334.351 347.06 335.311L341.791 335.953Z" fill="#F2F2F2"/>
<path d="M342.855 334.687L309.758 308.189L273.02 365.262L307.606 389.213C310.916 390.571 314.226 388.193 314.226 388.193L347.985 335.197L342.855 334.687Z" fill="#3F3D56"/>
<path d="M314.151 316.762L313.833 317.203L335.32 332.64L335.638 332.199L314.151 316.762Z" fill="#2F80ED"/>
<path d="M335.923 337.976L307.724 380.603L308.177 380.903L336.376 338.276L335.923 337.976Z" fill="#2F80ED"/>
<path d="M281.929 365.091L281.607 365.529L304.429 382.318L304.752 381.88L281.929 365.091Z" fill="#2F80ED"/>
<path d="M310.077 317.497L280.871 359.452L281.317 359.763L310.524 317.808L310.077 317.497Z" fill="#2F80ED"/>
<path d="M319.098 309.264L318.872 309.511L345.436 333.887L345.662 333.639L319.098 309.264Z" fill="#B3B3B3"/>
<path d="M316.885 309.474L316.663 309.725L344.426 334.23L344.648 333.978L316.885 309.474Z" fill="#B3B3B3"/>
<path d="M315.149 309.962L314.934 310.22L343.755 334.238L343.97 333.98L315.149 309.962Z" fill="#B3B3B3"/>
<path d="M299.449 358.124C298.407 357.36 297.23 356.821 295.989 356.54C294.747 356.259 293.465 356.24 292.216 356.485C290.968 356.731 289.778 357.235 288.716 357.969C287.654 358.703 286.741 359.652 286.03 360.762L272.095 382.498L282.17 391.483L300.443 373.876C301.505 372.853 302.335 371.591 302.871 370.184C303.407 368.777 303.636 367.261 303.54 365.748C303.445 364.235 303.028 362.764 302.319 361.444C301.611 360.125 300.63 358.99 299.449 358.124Z" fill="#A0616A"/>
<path d="M285.977 388.913C280.084 418.197 265.741 440.781 231.944 447.938C206.105 425.883 195.714 397.051 197.283 362.971C197.381 360.852 197.912 358.774 198.844 356.864C199.775 354.953 201.089 353.249 202.705 351.855C204.321 350.46 206.206 349.404 208.246 348.75C210.286 348.096 212.439 347.857 214.575 348.049C217.784 348.338 220.828 349.586 223.302 351.627C225.777 353.668 227.564 356.407 228.426 359.477L241.622 406.461L271.41 379.308L285.977 388.913Z" fill="#3DB4F8"/>
<path d="M350.513 73.1138C350.088 73.1142 349.681 73.2825 349.38 73.5818C349.08 73.8811 348.911 74.287 348.911 74.7102V199.235C348.911 199.658 349.08 200.064 349.38 200.364C349.681 200.663 350.088 200.831 350.513 200.832H454.665C455.09 200.831 455.497 200.663 455.798 200.363C456.098 200.064 456.267 199.658 456.268 199.235V74.7102C456.267 74.287 456.098 73.8812 455.798 73.5819C455.497 73.2826 455.09 73.1143 454.665 73.1138H350.513Z" fill="#E6E6E6"/>
<path d="M361.867 188.8H444.236V86.0708H361.867V188.8Z" fill="white"/>
<path d="M522.949 106.431C522.691 106.432 522.444 106.531 522.262 106.707C522.08 106.883 521.978 107.122 521.977 107.371V168.426C521.978 168.675 522.08 168.913 522.262 169.089C522.444 169.266 522.691 169.365 522.949 169.365H598.747C599.005 169.365 599.252 169.265 599.434 169.089C599.616 168.913 599.718 168.675 599.719 168.426V107.371C599.718 107.122 599.616 106.883 599.434 106.707C599.252 106.531 599.005 106.432 598.747 106.431L522.949 106.431Z" fill="#E6E6E6"/>
<path d="M529.381 113.835V161.961H592.315V113.835H529.381Z" fill="white"/>
<path d="M417.108 82.3687H388.077C387.375 82.3715 386.685 82.1877 386.077 81.8361C385.469 81.4844 384.963 80.9773 384.613 80.3662C384.262 79.755 384.078 79.0615 384.079 78.3557C384.08 77.65 384.267 76.9572 384.62 76.3474L399.136 51.0582C399.148 51.0374 399.16 51.0166 399.172 50.9958C399.49 50.458 399.929 50.0031 400.454 49.6685C400.979 49.3339 401.576 49.1289 402.195 49.0703L402.216 49.0683C402.34 49.057 402.466 49.0511 402.592 49.0511C403.294 49.0469 403.983 49.2306 404.591 49.5833C405.198 49.9361 405.701 50.4451 406.048 51.0582L420.564 76.3474C420.914 76.9577 421.099 77.6499 421.099 78.3545C421.099 79.0591 420.914 79.7513 420.564 80.3615C420.214 80.9717 419.71 81.4784 419.103 81.8308C418.497 82.1831 417.809 82.3686 417.108 82.3687ZM387.275 78.3506C387.276 78.493 387.314 78.6326 387.385 78.7559C387.454 78.879 387.555 78.9811 387.676 79.0517C387.798 79.1223 387.936 79.1588 388.076 79.1574H417.108C417.248 79.1589 417.387 79.1224 417.508 79.0518C417.63 78.9812 417.73 78.879 417.799 78.7559C417.87 78.6328 417.908 78.4933 417.909 78.351C417.908 78.2111 417.87 78.0739 417.799 77.9535L403.284 52.6638C403.214 52.5418 403.113 52.4404 402.991 52.37C402.87 52.2995 402.732 52.2624 402.592 52.2624C402.452 52.2624 402.314 52.2995 402.193 52.37C402.072 52.4404 401.971 52.5418 401.901 52.6638L387.385 77.9531C387.314 78.0734 387.276 78.2106 387.275 78.3506Z" fill="#E6E6E6"/>
<path d="M133.271 359.091C134.293 359.091 135.122 358.055 135.122 356.777C135.122 355.499 134.293 354.463 133.271 354.463C132.249 354.463 131.42 355.499 131.42 356.777C131.42 358.055 132.249 359.091 133.271 359.091Z" fill="#E6E6E6"/>
<path d="M568.833 108.283H552.866C552.48 108.284 552.101 108.182 551.766 107.987C551.432 107.791 551.154 107.51 550.961 107.17C550.768 106.83 550.667 106.445 550.667 106.053C550.668 105.661 550.771 105.276 550.965 104.937L558.949 90.8878L558.969 90.8532C559.143 90.5543 559.385 90.3017 559.674 90.1158C559.963 89.9298 560.291 89.816 560.631 89.7834L560.643 89.7823C560.711 89.776 560.78 89.7727 560.85 89.7727C561.236 89.7704 561.615 89.8725 561.949 90.0684C562.283 90.2644 562.56 90.5472 562.751 90.8878L570.734 104.937C570.927 105.276 571.028 105.661 571.028 106.052C571.028 106.444 570.927 106.828 570.734 107.167C570.542 107.506 570.265 107.788 569.931 107.984C569.597 108.179 569.219 108.282 568.833 108.283ZM552.425 106.05C552.426 106.129 552.447 106.207 552.486 106.275C552.524 106.344 552.579 106.401 552.646 106.44C552.713 106.479 552.789 106.499 552.866 106.498H568.833C568.911 106.499 568.987 106.479 569.054 106.44C569.121 106.401 569.176 106.344 569.214 106.275C569.253 106.207 569.273 106.13 569.274 106.05C569.274 105.973 569.253 105.897 569.214 105.83L561.23 91.7798C561.192 91.712 561.136 91.6557 561.069 91.6166C561.003 91.5774 560.927 91.5568 560.85 91.5568C560.773 91.5568 560.697 91.5774 560.63 91.6166C560.564 91.6557 560.508 91.712 560.47 91.7798L552.486 105.829C552.447 105.896 552.426 105.973 552.425 106.05Z" fill="#E6E6E6"/>
<path d="M561.311 94.4003C562.077 94.4003 562.699 93.7787 562.699 93.012C562.699 92.2453 562.077 91.6238 561.311 91.6238C560.544 91.6238 559.922 92.2453 559.922 93.012C559.922 93.7787 560.544 94.4003 561.311 94.4003Z" fill="#E6E6E6"/>
<path d="M362.431 148.823C363.584 146.296 365.265 144.02 367.371 142.133C369.476 140.247 371.963 138.789 374.678 137.85C377.502 136.81 380.528 136.364 383.549 136.544C386.57 136.723 389.515 137.523 392.182 138.89C398.444 142.062 403.45 147.048 409.81 150.084C415.994 153.008 422.799 154.538 429.7 154.556C437.514 154.614 445.206 152.709 452.004 149.031C452.268 148.872 452.457 148.621 452.531 148.331C452.605 148.042 452.558 147.736 452.401 147.478C452.243 147.221 451.987 147.032 451.686 146.952C451.385 146.871 451.063 146.905 450.789 147.047C444.628 150.342 437.708 152.131 430.647 152.254C423.586 152.378 416.603 150.832 410.32 147.755C403.939 144.563 398.884 139.407 392.384 136.416C389.624 135.138 386.627 134.395 383.564 134.231C380.502 134.067 377.436 134.485 374.544 135.46C371.33 136.489 368.38 138.158 365.892 140.357C363.403 142.555 361.432 145.232 360.109 148.212C359.525 149.581 361.853 150.176 362.431 148.823V148.823Z" fill="#E6E6E6"/>
<path d="M361.501 171.767C374.703 169.035 388.398 169.079 401.579 171.896C413.288 174.412 425.375 178.94 437.448 175.563C442.842 174.055 447.785 171.037 450.555 166.394C451.297 165.151 449.243 164.037 448.501 165.281C443.284 174.024 431.062 175.499 421.408 174.065C414.958 173.106 408.742 171.184 402.392 169.809C388.743 166.843 374.546 166.785 360.869 169.641C359.375 169.95 360.007 172.076 361.501 171.767Z" fill="#E6E6E6"/>
<path d="M360.587 118.589C373.273 116.365 386.267 116.841 398.769 119.988C410.448 122.937 421.864 129.673 434.213 128.51C439.93 127.971 445.59 125.804 449.474 121.297C450.49 120.119 448.81 118.375 447.788 119.56C444.438 123.448 439.612 125.463 434.66 126.008C428.952 126.635 423.344 125.417 417.911 123.685C411.898 121.769 406.056 119.341 399.942 117.757C386.863 114.373 373.241 113.849 359.953 116.219C358.443 116.485 359.083 118.853 360.587 118.589Z" fill="#E6E6E6"/>
<path d="M541.744 112.173C546.999 117.778 550.623 124.818 552.199 132.479C553.41 138.573 553.274 144.874 551.799 150.905C550.325 156.936 547.552 162.538 543.69 167.287C542.743 168.448 544.352 170.14 545.306 168.97C550.567 162.514 553.927 154.612 554.981 146.215C555.75 139.733 555.104 133.154 553.091 126.969C551.079 120.783 547.753 115.15 543.36 110.49C542.328 109.394 540.713 111.078 541.744 112.173Z" fill="#E6E6E6"/>
<path d="M576.549 107.585C569.266 112.998 565.189 121.735 564.615 130.771C564.019 140.174 567.557 149.254 573.255 156.555C576.58 160.758 580.551 164.391 585.016 167.314C586.3 168.165 587.492 166.081 586.216 165.235C578.941 160.411 572.716 153.558 569.41 145.335C567.798 141.429 566.963 137.239 566.951 133.005C566.939 128.771 567.751 124.577 569.341 120.661C571.121 116.299 574.025 112.501 577.748 109.665C578.968 108.758 577.784 106.667 576.549 107.585Z" fill="#E6E6E6"/>
<path d="M408.605 131.42C414.483 131.42 419.248 126.448 419.248 120.314C419.248 114.18 414.483 109.208 408.605 109.208C402.727 109.208 397.961 114.18 397.961 120.314C397.961 126.448 402.727 131.42 408.605 131.42Z" fill="#E6E6E6"/>
</svg>
