<svg width="183" height="29" viewBox="0 0 183 29" fill="none" xmlns="http://www.w3.org/2000/svg">
<path fill-rule="evenodd" clip-rule="evenodd" d="M66.4092 0.477476C63.9388 1.02661 64.1412 0.843986 64.5378 2.16813C64.8251 3.12641 64.8666 4.67836 64.8711 14.6957C64.8762 26.6487 64.8819 26.5558 64.0423 28.5868C63.8782 28.9826 74.017 28.7898 75.4511 28.3699C82.3847 26.3394 84.3602 16.8521 78.4923 13.768C78.1814 13.6051 78.2478 13.4702 79.0689 12.5984C81.5814 9.93231 81.5699 5.37957 79.0446 2.59383C77.1534 0.508021 72.9226 -0.265727 70.4178 1.01643L69.3751 1.55029L69.1395 0.765724C69.0092 0.333673 68.8055 -0.0105691 68.6855 0.000248118C68.5655 0.0110653 67.5413 0.226136 66.4092 0.477476ZM44.903 0.495293C45.6858 2.50983 45.7037 2.78026 45.7727 13.8564C45.8397 24.6246 45.7695 26.1517 45.1093 28.366L44.9758 28.8134H48.3127C51.4088 28.8134 51.6399 28.7886 51.5154 28.4653C50.9969 27.1253 50.8143 25.4562 50.8118 22.0329L50.8092 18.3347L52.8544 18.2145C60.0548 17.7913 63.9886 12.5634 61.9805 6.08459C60.6397 1.76026 58.645 0.796896 50.6043 0.592006C47.6933 0.517559 45.1859 0.380125 45.0333 0.285952C44.8181 0.153601 44.7887 0.200684 44.903 0.495293ZM0.408006 1.66927C1.25914 4.16231 1.10526 25.3773 0.21454 28.366L0.0810922 28.8134H3.35983H6.6392L6.28802 27.4714C5.99814 26.3636 5.93492 25.2278 5.92535 20.9805L5.91385 15.8321L8.55791 15.9594C10.0118 16.0294 11.4931 16.142 11.8501 16.2088L12.4988 16.331V13.8997V11.4677L11.9497 11.588C11.6477 11.6542 10.1663 11.7674 8.65752 11.8406L5.91385 11.9729V8.36319V4.75344L8.85674 4.7579C11.4625 4.76235 12.6712 4.88516 13.9705 5.27903C14.3785 5.40247 14.323 3.25685 13.8741 1.5242C13.6238 0.558926 13.9559 0.602826 6.39848 0.533469L0 0.474932L0.408006 1.66927ZM93.9544 0.762539C87.8465 2.25849 84.827 6.86915 84.8314 14.6957C84.8365 24.5018 89.4338 29.2327 98.6973 28.9654C107.125 28.7217 111.411 23.819 111.345 14.4965C111.272 4.07895 103.969 -1.68914 93.9544 0.762539ZM123.086 0.762539C116.978 2.25849 113.959 6.86915 113.963 14.6957C113.968 24.5018 118.566 29.2327 127.829 28.9654C136.257 28.7217 140.543 23.819 140.477 14.4965C140.404 4.07895 133.101 -1.68914 123.086 0.762539ZM172.774 0.685545C168.579 1.8118 166.331 5.40565 167.424 9.24129C168.087 11.5689 169.41 12.9548 173.745 15.862C177.069 18.091 178.115 19.377 178.107 21.2204C178.087 25.5307 173.042 26.4355 168.553 22.9352C166.915 21.6581 166.938 21.6441 166.938 23.9749C166.938 26.1167 166.991 26.0824 165.336 25.0165C163.142 23.6033 154.466 14.6442 154.466 13.7921C154.466 13.0572 162.177 5.35475 164.46 3.80853L165.216 3.2963L164.531 2.72426C162.921 1.38039 161.784 0.724357 161.282 0.849709C160.159 1.13095 156.556 4.72607 151.346 10.7633L149.678 12.6964L149.624 8.22511C149.573 3.94406 149.712 2.40102 150.284 0.925431C150.409 0.602188 150.176 0.577374 147.027 0.577374H143.634L144.057 1.82008C144.922 4.36275 144.781 25.3391 143.879 28.366L143.745 28.8134H147.024H150.303L149.952 27.4714C149.68 26.4298 149.598 25.2895 149.589 22.3797L149.578 18.63L150.201 17.8473C150.978 16.8693 150.695 16.6867 153.476 19.9649C161.844 29.8295 161.97 29.9142 165.038 27.7157L166.829 26.4317L167.089 26.9261C168.063 28.7803 174.351 29.6577 177.895 28.4335C181.442 27.2086 183 24.8664 183 20.7603C183 17.2224 182.169 16.0472 177.118 12.4413C172.564 9.18912 171.884 8.3861 172.211 6.64708C172.737 3.85498 176.987 3.39238 180.328 5.76262C181.065 6.28566 180.964 6.41291 181.577 4.18076C182.139 2.12804 182.088 1.77744 181.148 1.29958C179.459 0.440566 174.926 0.108417 172.774 0.685545ZM17.1535 1.82008C17.5596 3.01506 17.5787 3.47828 17.6426 13.7775C17.7084 24.4496 17.6298 26.2255 17.0137 28.0091L16.7449 28.7866L23.8163 28.7504C32.0703 28.7077 31.1751 29.0253 31.9349 25.8724C32.5351 23.3806 32.622 23.5779 31.1528 24.0869C30.165 24.4292 29.3254 24.517 26.3065 24.594L22.6555 24.6869L22.7181 13.8749C22.7787 3.45537 22.7966 3.0176 23.2059 1.82008L23.6305 0.577374H20.1807H16.7308L17.1535 1.82008ZM34.1506 0.925431C34.9334 2.80316 34.9295 2.73954 34.9998 13.8481C35.0675 24.6157 34.9979 26.1422 34.3345 28.366L34.201 28.8134H37.5378C40.6359 28.8134 40.8651 28.7886 40.7368 28.4653C40.0823 26.8198 40.0159 25.3665 40.0753 14.0187C40.1155 6.30347 40.2049 2.50601 40.3543 2.16813C40.475 1.89452 40.634 1.42493 40.7068 1.12396L40.8396 0.577374H37.4229C34.2457 0.577374 34.0158 0.601552 34.1506 0.925431ZM74.7309 4.93606C77.9522 7.2223 75.8591 11.7235 71.419 12.0582L69.9542 12.1683L70.0091 8.71698L70.064 5.26566L70.7626 4.79353C71.7133 4.15023 73.7246 4.22213 74.7309 4.93606ZM100.792 4.86161C107.751 6.76861 108.646 20.7928 102.017 24.0411C96.9158 26.5418 91.5249 24.0576 90.1125 18.5561C87.7999 9.54417 93.0969 2.75163 100.792 4.86161ZM129.924 4.86161C136.883 6.76861 137.778 20.7928 131.149 24.0411C126.048 26.5418 120.657 24.0576 119.244 18.5561C116.932 9.54417 122.229 2.75163 129.924 4.86161ZM55.229 5.1174C57.4861 6.20612 58.251 9.66316 56.7652 12.0595C56.1363 13.0725 54.2016 13.934 52.2778 14.0575L50.8092 14.151V9.32847V4.50591L52.5574 4.58864C53.8313 4.64972 54.5573 4.79289 55.229 5.1174ZM74.404 16.2845C76.6943 17.1385 77.5192 19.3223 76.5391 21.9336C75.8042 23.8903 74.1051 24.8365 71.3244 24.8365H69.9644V20.2334V15.6304L71.6188 15.7469C72.5363 15.8111 73.7776 16.051 74.404 16.2845Z" fill="#2D9CDB"/>
</svg>
