<svg width="206" height="53" viewBox="0 0 206 53" fill="none" xmlns="http://www.w3.org/2000/svg">
<path fill-rule="evenodd" clip-rule="evenodd" d="M20.9658 37.0848L12.8704 19.8904L16.2291 18.0452L22.7743 30.7103L32.4199 26.0972L34.4868 29.4522L20.9658 37.0848Z" fill="#0D4085"/>
<path fill-rule="evenodd" clip-rule="evenodd" d="M15.9704 44.6339L5.11914 18.7166L10.717 15.3616L20.8793 35.6593L35.8645 27.9428L37.4146 32.6398L15.9704 44.6339Z" fill="#2B75DA"/>
<path d="M27.9416 19.136C35.5203 15.0261 41.3765 12.0066 42.2377 11.8389C43.0128 11.6711 44.0463 12.0066 44.1324 12.8454C44.2185 15.1939 44.9075 30.4591 45.4242 32.5559C44.3908 33.8141 19.1572 47.234 15.1956 49.247L0.382761 17.4585C0.0382761 16.7875 -0.133966 16.1165 0.124397 15.4455C0.727247 13.8519 21.3102 0.264123 22.5159 0.0124986C23.291 -0.0713763 24.1522 0.264123 24.3245 1.10287L27.9416 19.136ZM42.3238 29.872L41.4626 15.0261C40.2569 15.8648 27.0804 22.5748 27.0804 22.5748C26.6498 22.6587 26.2192 22.5748 25.8747 22.4071C25.5302 22.2393 25.2718 21.9038 25.1857 21.4845L21.6547 3.78687L5.3778 14.439C5.55004 14.6906 5.8084 14.9422 5.89453 15.2777L18.1238 42.1177L40.9459 30.3752C41.3765 30.1236 41.8071 29.9558 42.3238 29.872Z" fill="#2F80ED"/>
<path d="M64.3126 15.7724C64.0648 15.5953 63.8264 15.4576 63.5976 15.3592C63.3879 15.2608 63.1591 15.1919 62.9113 15.1526C62.6825 15.0936 62.406 15.0542 62.0819 15.0345C61.7769 15.0149 61.4051 15.005 60.9666 15.005H57.0771V20.2883H60.7378C61.4623 20.2883 62.0247 20.249 62.4251 20.1702C62.8445 20.0915 63.2545 19.9243 63.6548 19.6685V24.4795C63.3307 24.2434 62.9589 24.086 62.5395 24.0073C62.12 23.9089 61.5195 23.8597 60.7378 23.8597H57.0771V29.8809C57.0771 30.9828 57.1248 31.8191 57.2201 32.3897C57.3345 32.9603 57.5252 33.4326 57.7921 33.8065H52.1295C52.2439 33.5703 52.3393 33.3637 52.4155 33.1866C52.4918 32.9899 52.549 32.7734 52.5871 32.5373C52.6443 32.3012 52.6729 32.0257 52.6729 31.7109C52.692 31.396 52.7015 31.0025 52.7015 30.5302V14.031C52.7015 13.4013 52.6539 12.8996 52.5585 12.5257C52.4823 12.1518 52.3393 11.7681 52.1295 11.3746H61.5957C62.0724 11.3746 62.4632 11.3648 62.7683 11.3451C63.0733 11.3254 63.3307 11.3057 63.5405 11.286C63.7692 11.2467 63.9694 11.1975 64.141 11.1385C64.3126 11.0794 64.5033 11.0007 64.713 10.9023L64.3126 15.7724Z" fill="#0050FF"/>
<path d="M80.3963 33.8065H67.1551C67.4601 33.4129 67.6698 32.9899 67.7842 32.5373C67.8986 32.0847 67.9558 31.4255 67.9558 30.5597V14.1786C67.9558 13.4702 67.9082 12.9192 67.8128 12.5257C67.7175 12.1322 67.5078 11.7485 67.1837 11.3746H73.4468C73.2752 11.5517 73.1227 11.7288 72.9892 11.9059C72.8748 12.0633 72.7795 12.2502 72.7032 12.4667C72.646 12.6831 72.5984 12.9389 72.5602 13.2341C72.5412 13.5292 72.5316 13.8834 72.5316 14.2966V29.9989L72.646 30.058C72.8367 30.1367 73.0369 30.1859 73.2466 30.2056C73.4563 30.2252 73.7233 30.2351 74.0474 30.2351H76.6499C77.6031 30.2351 78.442 30.0875 79.1665 29.7923C79.891 29.4972 80.6251 29.0053 81.3687 28.3166C81.2161 29.202 81.0731 30.0186 80.9397 30.7664C80.8825 31.0812 80.8253 31.396 80.7681 31.7109C80.7109 32.0257 80.6537 32.3208 80.5965 32.5963C80.5584 32.8718 80.5202 33.1178 80.4821 33.3342C80.444 33.5507 80.4154 33.7081 80.3963 33.8065Z" fill="#0050FF"/>
<path d="M83.3882 33.8065C83.7123 33.3932 83.9411 32.9702 84.0746 32.5373C84.2271 32.0847 84.3034 31.4944 84.3034 30.7664V14.1491C84.3034 13.4604 84.2366 12.9291 84.1032 12.5552C83.9697 12.1617 83.7409 11.7681 83.4168 11.3746H89.6799C89.5084 11.591 89.3654 11.7977 89.251 11.9944C89.1556 12.1912 89.0794 12.3978 89.0222 12.6142C88.965 12.8307 88.9268 13.0767 88.9078 13.3521C88.8887 13.6079 88.8792 13.9129 88.8792 14.2671V30.7664C88.8792 31.455 88.9459 32.0454 89.0794 32.5373C89.2128 33.0095 89.4512 33.4326 89.7943 33.8065H83.3882Z" fill="#0050FF"/>
<path d="M100.569 25.2174L98.281 25.1879V29.8809C98.281 30.5499 98.2906 31.1009 98.3096 31.5338C98.3478 31.947 98.3954 32.3012 98.4526 32.5963C98.5098 32.8718 98.5956 33.0981 98.71 33.2752C98.8244 33.4523 98.9674 33.6294 99.139 33.8065H93.0475C93.2381 33.59 93.3906 33.3834 93.505 33.1866C93.6194 32.9702 93.7052 32.7341 93.7624 32.4783C93.8196 32.2028 93.8482 31.8879 93.8482 31.5338C93.8673 31.1599 93.8768 30.6876 93.8768 30.117L93.8482 14.09C93.8482 13.4013 93.791 12.8602 93.6766 12.4667C93.5622 12.0535 93.3144 11.6894 92.9331 11.3746H100.455C101.56 11.3746 102.533 11.6206 103.372 12.1125C104.211 12.6044 104.906 13.2144 105.459 13.9425C106.012 14.6705 106.422 15.4477 106.689 16.2742C106.975 17.1006 107.118 17.8385 107.118 18.4879C107.118 19.1962 106.975 19.944 106.689 20.731C106.403 21.5181 105.974 22.2462 105.402 22.9152C104.849 23.5842 104.163 24.1352 103.343 24.5681C102.542 25.001 101.618 25.2174 100.569 25.2174ZM99.4536 14.8574C99.301 14.8574 99.1199 14.8574 98.9102 14.8574C98.7005 14.8574 98.4907 14.8673 98.281 14.887V21.9117H99.568C100.369 21.9117 101.065 21.6263 101.656 21.0557C102.247 20.4654 102.542 19.6193 102.542 18.5174C102.542 17.4548 102.256 16.5792 101.684 15.8905C101.112 15.2018 100.369 14.8574 99.4536 14.8574Z" fill="#0050FF"/>
<path d="M120.561 21.8231C121.61 22.2757 122.468 22.9644 123.135 23.8892C123.821 24.7944 124.164 25.9356 124.164 27.313C124.164 28.3756 123.974 29.3102 123.592 30.117C123.23 30.9238 122.735 31.6026 122.105 32.1536C121.495 32.7045 120.79 33.1178 119.989 33.3932C119.207 33.6687 118.407 33.8065 117.587 33.8065H109.55C109.836 33.4326 110.027 33.0686 110.122 32.7144C110.218 32.3602 110.265 31.8584 110.265 31.2091L110.237 14.09C110.237 13.4013 110.199 12.8799 110.122 12.5257C110.046 12.1518 109.884 11.778 109.636 11.4041H116.071C117.139 11.4041 118.092 11.5714 118.931 11.9059C119.789 12.2207 120.504 12.6536 121.076 13.2046C121.667 13.7555 122.115 14.395 122.42 15.1231C122.744 15.8511 122.906 16.6185 122.906 17.4253C122.906 18.4485 122.668 19.334 122.191 20.0817C121.715 20.8098 121.171 21.3902 120.561 21.8231ZM115.385 14.7689H114.527V20.613C114.641 20.613 114.765 20.6228 114.898 20.6425C115.051 20.6425 115.232 20.6425 115.442 20.6425C115.842 20.6425 116.214 20.5638 116.557 20.4064C116.919 20.249 117.225 20.0423 117.472 19.7865C117.739 19.5111 117.949 19.1962 118.102 18.842C118.254 18.4879 118.33 18.1042 118.33 17.6909C118.33 16.8842 118.063 16.1955 117.53 15.6248C117.015 15.0542 116.3 14.7689 115.385 14.7689ZM115.47 23.6236C115.299 23.6236 115.127 23.6236 114.956 23.6236C114.803 23.6236 114.66 23.6334 114.527 23.6531V30.6188C114.736 30.6581 114.956 30.6876 115.184 30.7073C115.432 30.727 115.718 30.7368 116.042 30.7368C116.595 30.7368 117.082 30.6385 117.501 30.4417C117.939 30.2449 118.302 29.9891 118.588 29.6743C118.893 29.3398 119.122 28.9561 119.274 28.5232C119.427 28.0706 119.503 27.6082 119.503 27.1359C119.503 26.1718 119.16 25.3453 118.473 24.6566C117.806 23.9679 116.805 23.6236 115.47 23.6236Z" fill="#0050FF"/>
<path d="M136.854 34.1311C135.424 34.1311 134.08 33.8261 132.821 33.2161C131.582 32.6062 130.495 31.7896 129.561 30.7664C128.646 29.7235 127.921 28.5133 127.388 27.1359C126.854 25.7389 126.587 24.2631 126.587 22.7086C126.587 21.1541 126.854 19.6783 127.388 18.2812C127.921 16.8645 128.646 15.6248 129.561 14.5623C130.495 13.48 131.582 12.6241 132.821 11.9944C134.08 11.3451 135.424 11.0204 136.854 11.0204C138.341 11.0204 139.704 11.3451 140.943 11.9944C142.202 12.6241 143.279 13.48 144.175 14.5623C145.09 15.6248 145.805 16.8645 146.32 18.2812C146.835 19.698 147.092 21.1738 147.092 22.7086C147.092 24.2631 146.835 25.729 146.32 27.1064C145.824 28.4838 145.128 29.694 144.232 30.7368C143.336 31.7797 142.259 32.6062 141.001 33.2161C139.742 33.8261 138.36 34.1311 136.854 34.1311ZM136.882 14.5328C136.196 14.5328 135.529 14.7394 134.881 15.1526C134.251 15.5461 133.689 16.0971 133.193 16.8055C132.697 17.5138 132.297 18.36 131.992 19.3438C131.706 20.3277 131.563 21.4001 131.563 22.561C131.563 23.7416 131.706 24.8239 131.992 25.8077C132.297 26.7916 132.697 27.6377 133.193 28.3461C133.689 29.0544 134.251 29.6152 134.881 30.0285C135.529 30.422 136.196 30.6188 136.882 30.6188C137.626 30.6188 138.312 30.422 138.942 30.0285C139.571 29.6349 140.114 29.084 140.572 28.3756C141.048 27.6475 141.42 26.7916 141.687 25.8077C141.954 24.8239 142.087 23.7416 142.087 22.561C142.087 21.3804 141.963 20.2981 141.716 19.3143C141.468 18.3304 141.115 17.4843 140.657 16.776C140.219 16.0676 139.676 15.5166 139.027 15.1231C138.398 14.7295 137.683 14.5328 136.882 14.5328Z" fill="#0050FF"/>
<path d="M160.23 34.1311C158.8 34.1311 157.456 33.8261 156.198 33.2161C154.958 32.6062 153.872 31.7896 152.937 30.7664C152.022 29.7235 151.298 28.5133 150.764 27.1359C150.23 25.7389 149.963 24.2631 149.963 22.7086C149.963 21.1541 150.23 19.6783 150.764 18.2812C151.298 16.8645 152.022 15.6248 152.937 14.5623C153.872 13.48 154.958 12.6241 156.198 11.9944C157.456 11.3451 158.8 11.0204 160.23 11.0204C161.717 11.0204 163.08 11.3451 164.32 11.9944C165.578 12.6241 166.655 13.48 167.551 14.5623C168.466 15.6248 169.181 16.8645 169.696 18.2812C170.211 19.698 170.468 21.1738 170.468 22.7086C170.468 24.2631 170.211 25.729 169.696 27.1064C169.2 28.4838 168.505 29.694 167.608 30.7368C166.712 31.7797 165.635 32.6062 164.377 33.2161C163.118 33.8261 161.736 34.1311 160.23 34.1311ZM160.259 14.5328C159.572 14.5328 158.905 14.7394 158.257 15.1526C157.627 15.5461 157.065 16.0971 156.569 16.8055C156.074 17.5138 155.673 18.36 155.368 19.3438C155.082 20.3277 154.939 21.4001 154.939 22.561C154.939 23.7416 155.082 24.8239 155.368 25.8077C155.673 26.7916 156.074 27.6377 156.569 28.3461C157.065 29.0544 157.627 29.6152 158.257 30.0285C158.905 30.422 159.572 30.6188 160.259 30.6188C161.002 30.6188 161.689 30.422 162.318 30.0285C162.947 29.6349 163.49 29.084 163.948 28.3756C164.424 27.6475 164.796 26.7916 165.063 25.8077C165.33 24.8239 165.464 23.7416 165.464 22.561C165.464 21.3804 165.34 20.2981 165.092 19.3143C164.844 18.3304 164.491 17.4843 164.034 16.776C163.595 16.0676 163.052 15.5166 162.403 15.1231C161.774 14.7295 161.059 14.5328 160.259 14.5328Z" fill="#0050FF"/>
<path d="M183.606 33.8065C183.759 33.4326 183.854 33.0882 183.892 32.7734C183.949 32.4389 183.978 31.9962 183.978 31.4452C183.978 30.5401 183.873 29.6644 183.663 28.8183C183.454 27.9722 183.139 27.195 182.72 26.4866C182.3 25.7782 181.785 25.1584 181.175 24.6271C180.584 24.0761 179.907 23.6531 179.145 23.3579L178.544 24.1253V30.7664C178.544 31.1796 178.554 31.5338 178.573 31.8289C178.611 32.1241 178.659 32.3897 178.716 32.6258C178.773 32.8423 178.859 33.0489 178.973 33.2457C179.088 33.4228 179.23 33.6097 179.402 33.8065H173.339C173.511 33.6294 173.644 33.4523 173.74 33.2752C173.854 33.0981 173.94 32.9013 173.997 32.6849C174.054 32.4487 174.092 32.1831 174.111 31.8879C174.149 31.5928 174.169 31.2189 174.169 30.7664V14.1491C174.169 13.4013 174.102 12.8307 173.968 12.4372C173.854 12.0436 173.663 11.6894 173.396 11.3746H179.345C179.192 11.591 179.059 11.7977 178.945 11.9944C178.849 12.1912 178.773 12.3978 178.716 12.6142C178.659 12.8307 178.611 13.0767 178.573 13.3521C178.554 13.6079 178.544 13.9129 178.544 14.2671V18.6059L181.976 14.1195C182.357 13.6473 182.605 13.1947 182.72 12.7618C182.834 12.3093 182.853 11.8567 182.777 11.4041H189.555C189.154 11.5418 188.792 11.6993 188.468 11.8764C188.163 12.0338 187.867 12.2404 187.581 12.4962C187.295 12.7323 187 13.0176 186.695 13.3521C186.409 13.6866 186.094 14.09 185.751 14.5623L181.318 20.5835C182.348 21.0164 183.263 21.5772 184.064 22.2659C184.884 22.9349 185.589 23.6629 186.18 24.45C186.771 25.2174 187.257 26.0143 187.639 26.8408C188.02 27.6672 188.306 28.4346 188.496 29.143C188.687 29.8317 188.849 30.3925 188.983 30.8254C189.116 31.2386 189.231 31.5829 189.326 31.8584C189.574 32.4487 189.926 33.0981 190.384 33.8065H183.606Z" fill="#0050FF"/>
<path d="M197.941 34.1311C196.016 34.1311 194.128 33.6884 192.279 32.8029L192.221 27.3721C192.984 28.4346 193.804 29.2414 194.681 29.7923C195.558 30.3433 196.54 30.6188 197.627 30.6188C198.637 30.6188 199.428 30.4122 200 29.9989C200.572 29.5661 200.858 29.0151 200.858 28.3461C200.858 27.8345 200.734 27.3721 200.487 26.9588C200.239 26.5259 199.8 26.0832 199.171 25.6306L195.425 22.9742C194.948 22.6397 194.5 22.2954 194.08 21.9412C193.68 21.5673 193.327 21.1541 193.022 20.7015C192.736 20.249 192.507 19.7374 192.336 19.1667C192.183 18.5764 192.107 17.8975 192.107 17.1301C192.107 16.2643 192.288 15.4576 192.65 14.7099C193.032 13.9621 193.547 13.3226 194.195 12.7913C194.843 12.2404 195.587 11.8075 196.425 11.4927C197.283 11.1778 198.189 11.0204 199.142 11.0204C200.229 11.0204 201.182 11.1286 202.002 11.3451C202.822 11.5615 203.556 11.8764 204.204 12.2896V17.1892C203.651 16.3824 202.965 15.7429 202.145 15.2707C201.344 14.7787 200.496 14.5328 199.6 14.5328C198.685 14.5328 197.97 14.759 197.455 15.2116C196.94 15.6445 196.683 16.1758 196.683 16.8055C196.683 17.3761 196.854 17.8582 197.198 18.2517C197.56 18.6256 198.113 19.0782 198.856 19.6094L202.231 22.0002C203.337 22.7873 204.138 23.6334 204.633 24.5386C205.129 25.4437 205.377 26.4866 205.377 27.6672C205.377 28.2969 205.253 28.9856 205.005 29.7333C204.776 30.481 204.376 31.1796 203.804 31.8289C203.232 32.4783 202.469 33.0292 201.516 33.4818C200.563 33.9147 199.371 34.1311 197.941 34.1311Z" fill="#0050FF"/>
<path d="M53.4408 44.3155V48.2735C53.4408 48.7163 53.6338 48.9376 54.0199 48.9376C54.08 48.9376 54.1615 48.9244 54.2644 48.8978C54.3674 48.8624 54.4489 48.8447 54.509 48.8447C54.6205 48.8447 54.7149 48.8934 54.7921 48.9908C54.8693 49.0882 54.9079 49.2121 54.9079 49.3627C54.9079 49.5486 54.805 49.708 54.599 49.8408C54.3931 49.9736 54.1615 50.04 53.9041 50.04C53.621 50.04 53.3593 50.0091 53.1191 49.9471C52.8874 49.8851 52.6772 49.7301 52.4885 49.4822C52.3083 49.2254 52.2182 48.8402 52.2182 48.3267V44.3155H51.4718C51.3088 44.3155 51.1715 44.2624 51.06 44.1561C50.957 44.041 50.9055 43.8993 50.9055 43.7311C50.9055 43.5628 50.957 43.4256 51.06 43.3193C51.1715 43.2131 51.3088 43.16 51.4718 43.16H52.2182V42.0443C52.2182 41.8672 52.274 41.7166 52.3855 41.5927C52.5056 41.4687 52.6558 41.4067 52.8359 41.4067C53.0075 41.4067 53.1491 41.4687 53.2606 41.5927C53.3807 41.7166 53.4408 41.8672 53.4408 42.0443V43.16H54.509C54.672 43.16 54.805 43.2175 54.9079 43.3326C55.0195 43.4389 55.0752 43.5761 55.0752 43.7444C55.0752 43.9126 55.0195 44.0499 54.9079 44.1561C54.805 44.2624 54.672 44.3155 54.509 44.3155H53.4408Z" fill="#0050FF"/>
<path d="M59.8611 42.9607C61.3712 42.9607 62.1262 43.9259 62.1262 45.8562V49.4025C62.1262 49.5796 62.0661 49.7301 61.946 49.8541C61.8345 49.9781 61.6886 50.04 61.5084 50.04C61.3368 50.04 61.191 49.9781 61.0709 49.8541C60.9593 49.7301 60.9036 49.5796 60.9036 49.4025V45.8562C60.9036 44.7051 60.4317 44.1295 59.4879 44.1295C58.9817 44.1295 58.5613 44.2978 58.2267 44.6343C57.8921 44.9619 57.7248 45.3692 57.7248 45.8562V49.4025C57.7248 49.5796 57.6648 49.7301 57.5446 49.8541C57.4331 49.9781 57.2873 50.04 57.1071 50.04C56.9269 50.04 56.7811 49.9825 56.6695 49.8674C56.558 49.7434 56.5022 49.5885 56.5022 49.4025V40.8489C56.5022 40.6718 56.558 40.5213 56.6695 40.3973C56.7896 40.2733 56.9355 40.2113 57.1071 40.2113C57.2873 40.2113 57.4331 40.2733 57.5446 40.3973C57.6648 40.5213 57.7248 40.6718 57.7248 40.8489V44.2092C57.9393 43.8639 58.2396 43.5717 58.6257 43.3326C59.0118 43.0847 59.4236 42.9607 59.8611 42.9607Z" fill="#0050FF"/>
<path d="M69.8749 46.2945C69.8663 46.4539 69.8019 46.5911 69.6818 46.7063C69.5617 46.8125 69.4202 46.8656 69.2571 46.8656H64.7271C64.7872 47.512 65.0231 48.03 65.4349 48.4196C65.8553 48.8092 66.3658 49.004 66.9664 49.004C67.3782 49.004 67.7128 48.9421 67.9702 48.8181C68.2276 48.6941 68.4549 48.5347 68.6523 48.3399C68.781 48.2603 68.9054 48.2204 69.0255 48.2204C69.1713 48.2204 69.2915 48.2735 69.3858 48.3798C69.4888 48.486 69.5403 48.61 69.5403 48.7517C69.5403 48.9376 69.4545 49.1059 69.2829 49.2564C69.0341 49.5132 68.7038 49.7301 68.2919 49.9072C67.8801 50.0843 67.4597 50.1729 67.0307 50.1729C66.3358 50.1729 65.7223 50.0223 65.1904 49.7213C64.667 49.4202 64.2595 48.9996 63.9678 48.4595C63.6847 47.9193 63.5431 47.3084 63.5431 46.6266C63.5431 45.8828 63.689 45.232 63.9807 44.6741C64.281 44.1074 64.6713 43.6735 65.1518 43.3725C65.6408 43.0714 66.1642 42.9209 66.7219 42.9209C67.271 42.9209 67.7857 43.067 68.2662 43.3592C68.7467 43.6514 69.1327 44.0543 69.4244 44.5679C69.7162 45.0814 69.8663 45.657 69.8749 46.2945ZM66.7219 44.0897C66.2414 44.0897 65.8253 44.2314 65.4735 44.5147C65.1218 44.7892 64.8901 45.2187 64.7786 45.8031H68.5751V45.6968C68.5322 45.2275 68.3263 44.8423 67.9573 44.5413C67.597 44.2402 67.1852 44.0897 66.7219 44.0897Z" fill="#0050FF"/>
<path d="M78.2485 42.9209C78.8319 42.9209 79.3595 43.0758 79.8314 43.3857C80.3033 43.6957 80.6722 44.1251 80.9382 44.6741C81.2127 45.2231 81.35 45.8429 81.35 46.5336C81.35 47.2243 81.2127 47.8485 80.9382 48.4064C80.6722 48.9642 80.3033 49.3981 79.8314 49.708C79.3595 50.0179 78.8405 50.1729 78.2742 50.1729C77.8281 50.1729 77.4119 50.071 77.0259 49.8674C76.6398 49.6637 76.3266 49.4114 76.0864 49.1103V49.4955C76.0864 49.6726 76.0263 49.8231 75.9062 49.9471C75.7947 50.071 75.6488 50.133 75.4687 50.133C75.2971 50.133 75.1512 50.0755 75.0311 49.9604C74.9196 49.8364 74.8638 49.6814 74.8638 49.4955V40.8489C74.8638 40.6629 74.9196 40.5124 75.0311 40.3973C75.1426 40.2733 75.2885 40.2113 75.4687 40.2113C75.6488 40.2113 75.7947 40.2733 75.9062 40.3973C76.0263 40.5213 76.0864 40.6718 76.0864 40.8489V44.0897C76.2923 43.7709 76.5926 43.4964 76.9873 43.2662C77.3819 43.036 77.8023 42.9209 78.2485 42.9209ZM78.1069 49.004C78.5016 49.004 78.8576 48.8978 79.1751 48.6853C79.4925 48.4639 79.737 48.1673 79.9086 47.7954C80.0888 47.4146 80.1789 46.994 80.1789 46.5336C80.1789 46.0731 80.0888 45.657 79.9086 45.2851C79.737 44.9132 79.4925 44.621 79.1751 44.4085C78.8576 44.196 78.5016 44.0897 78.1069 44.0897C77.7037 44.0897 77.3433 44.196 77.0259 44.4085C76.7084 44.621 76.4596 44.9132 76.2794 45.2851C76.1078 45.6481 76.022 46.0643 76.022 46.5336C76.022 47.0029 76.1078 47.4235 76.2794 47.7954C76.4596 48.1673 76.7084 48.4639 77.0259 48.6853C77.3433 48.8978 77.7037 49.004 78.1069 49.004Z" fill="#0050FF"/>
<path d="M89.1522 46.5602C89.1522 47.2508 89.0021 47.8706 88.7018 48.4196C88.4015 48.9686 87.9897 49.3981 87.4663 49.708C86.9515 50.0179 86.381 50.1729 85.7547 50.1729C85.1284 50.1729 84.5535 50.0179 84.0302 49.708C83.5154 49.3981 83.1078 48.9686 82.8076 48.4196C82.5073 47.8706 82.3571 47.2508 82.3571 46.5602C82.3571 45.8695 82.5073 45.2452 82.8076 44.6874C83.1078 44.1295 83.5154 43.6957 84.0302 43.3857C84.5535 43.0758 85.1284 42.9209 85.7547 42.9209C86.381 42.9209 86.9515 43.0758 87.4663 43.3857C87.9897 43.6957 88.4015 44.1295 88.7018 44.6874C89.0021 45.2452 89.1522 45.8695 89.1522 46.5602ZM87.9296 46.5602C87.9296 46.082 87.8309 45.657 87.6336 45.2851C87.4449 44.9043 87.1832 44.6121 86.8486 44.4085C86.5225 44.196 86.1579 44.0897 85.7547 44.0897C85.3514 44.0897 84.9825 44.196 84.6479 44.4085C84.3219 44.6121 84.0602 44.9043 83.8629 45.2851C83.6741 45.657 83.5797 46.082 83.5797 46.5602C83.5797 47.0295 83.6741 47.4501 83.8629 47.8219C84.0602 48.1938 84.3219 48.486 84.6479 48.6986C84.9825 48.9022 85.3514 49.004 85.7547 49.004C86.1579 49.004 86.5225 48.9022 86.8486 48.6986C87.1832 48.486 87.4449 48.1938 87.6336 47.8219C87.8309 47.4501 87.9296 47.0295 87.9296 46.5602Z" fill="#0050FF"/>
<path d="M96.9568 46.5602C96.9568 47.2508 96.8067 47.8706 96.5064 48.4196C96.2061 48.9686 95.7943 49.3981 95.2709 49.708C94.7561 50.0179 94.1856 50.1729 93.5593 50.1729C92.933 50.1729 92.3581 50.0179 91.8348 49.708C91.32 49.3981 90.9125 48.9686 90.6122 48.4196C90.3119 47.8706 90.1617 47.2508 90.1617 46.5602C90.1617 45.8695 90.3119 45.2452 90.6122 44.6874C90.9125 44.1295 91.32 43.6957 91.8348 43.3857C92.3581 43.0758 92.933 42.9209 93.5593 42.9209C94.1856 42.9209 94.7561 43.0758 95.2709 43.3857C95.7943 43.6957 96.2061 44.1295 96.5064 44.6874C96.8067 45.2452 96.9568 45.8695 96.9568 46.5602ZM95.7342 46.5602C95.7342 46.082 95.6355 45.657 95.4382 45.2851C95.2495 44.9043 94.9878 44.6121 94.6532 44.4085C94.3272 44.196 93.9625 44.0897 93.5593 44.0897C93.156 44.0897 92.7871 44.196 92.4525 44.4085C92.1265 44.6121 91.8648 44.9043 91.6675 45.2851C91.4787 45.657 91.3843 46.082 91.3843 46.5602C91.3843 47.0295 91.4787 47.4501 91.6675 47.8219C91.8648 48.1938 92.1265 48.486 92.4525 48.6986C92.7871 48.9022 93.156 49.004 93.5593 49.004C93.9625 49.004 94.3272 48.9022 94.6532 48.6986C94.9878 48.486 95.2495 48.1938 95.4382 47.8219C95.6355 47.4501 95.7342 47.0295 95.7342 46.5602Z" fill="#0050FF"/>
<path d="M103.886 48.9376C104.015 49.0793 104.079 49.2343 104.079 49.4025C104.079 49.5796 104.011 49.7301 103.873 49.8541C103.745 49.9692 103.607 50.0268 103.462 50.0268C103.273 50.0268 103.123 49.9559 103.011 49.8143L100.476 47.0383L99.7037 47.7555V49.4025C99.7037 49.5796 99.6437 49.7301 99.5236 49.8541C99.412 49.9781 99.2705 50.04 99.0989 50.04C98.9187 50.04 98.7686 49.9781 98.6484 49.8541C98.5369 49.7301 98.4811 49.5796 98.4811 49.4025V40.8489C98.4811 40.6718 98.5369 40.5213 98.6484 40.3973C98.7686 40.2733 98.9187 40.2113 99.0989 40.2113C99.2705 40.2113 99.412 40.2733 99.5236 40.3973C99.6437 40.5213 99.7037 40.6718 99.7037 40.8489V46.2414L102.857 43.2529C103.003 43.1201 103.153 43.0537 103.307 43.0537C103.453 43.0537 103.586 43.1201 103.706 43.2529C103.826 43.3769 103.886 43.5097 103.886 43.6514C103.886 43.8285 103.805 43.9879 103.642 44.1295L101.415 46.175L103.886 48.9376Z" fill="#0050FF"/>
<path d="M114.555 40.2113C114.736 40.2113 114.882 40.2733 114.993 40.3973C115.113 40.5124 115.173 40.6629 115.173 40.8489V49.4025C115.173 49.5796 115.113 49.7301 114.993 49.8541C114.882 49.9781 114.736 50.04 114.555 50.04C114.375 50.04 114.229 49.9825 114.118 49.8674C114.006 49.7434 113.951 49.5885 113.951 49.4025V49.0306C113.736 49.3494 113.432 49.6195 113.037 49.8408C112.651 50.0622 112.235 50.1729 111.789 50.1729C111.205 50.1729 110.677 50.0179 110.206 49.708C109.734 49.3981 109.361 48.9686 109.086 48.4196C108.811 47.8618 108.674 47.2375 108.674 46.5469C108.674 45.8562 108.807 45.2364 109.073 44.6874C109.348 44.1295 109.721 43.6957 110.193 43.3857C110.665 43.0758 111.184 42.9209 111.75 42.9209C112.205 42.9209 112.625 43.0183 113.011 43.2131C113.397 43.4079 113.71 43.6602 113.951 43.9702V40.8489C113.951 40.6629 114.006 40.5124 114.118 40.3973C114.229 40.2733 114.375 40.2113 114.555 40.2113ZM111.93 49.004C112.333 49.004 112.689 48.8978 112.998 48.6853C113.316 48.4728 113.56 48.1806 113.732 47.8087C113.912 47.4368 114.002 47.0162 114.002 46.5469C114.002 46.0864 113.912 45.6703 113.732 45.2984C113.56 44.9176 113.316 44.621 112.998 44.4085C112.689 44.196 112.333 44.0897 111.93 44.0897C111.527 44.0897 111.167 44.196 110.849 44.4085C110.54 44.621 110.296 44.9176 110.116 45.2984C109.944 45.6703 109.858 46.0864 109.858 46.5469C109.858 47.0162 109.944 47.4368 110.116 47.8087C110.296 48.1806 110.54 48.4728 110.849 48.6853C111.167 48.8978 111.527 49.004 111.93 49.004Z" fill="#0050FF"/>
<path d="M122.911 46.2945C122.902 46.4539 122.838 46.5911 122.718 46.7063C122.598 46.8125 122.456 46.8656 122.293 46.8656H117.763C117.823 47.512 118.059 48.03 118.471 48.4196C118.892 48.8092 119.402 49.004 120.003 49.004C120.414 49.004 120.749 48.9421 121.006 48.8181C121.264 48.6941 121.491 48.5347 121.688 48.3399C121.817 48.2603 121.942 48.2204 122.062 48.2204C122.208 48.2204 122.328 48.2735 122.422 48.3798C122.525 48.486 122.576 48.61 122.576 48.7517C122.576 48.9376 122.491 49.1059 122.319 49.2564C122.07 49.5132 121.74 49.7301 121.328 49.9072C120.916 50.0843 120.496 50.1729 120.067 50.1729C119.372 50.1729 118.759 50.0223 118.227 49.7213C117.703 49.4202 117.296 48.9996 117.004 48.4595C116.721 47.9193 116.579 47.3084 116.579 46.6266C116.579 45.8828 116.725 45.232 117.017 44.6741C117.317 44.1074 117.708 43.6735 118.188 43.3725C118.677 43.0714 119.2 42.9209 119.758 42.9209C120.307 42.9209 120.822 43.067 121.302 43.3592C121.783 43.6514 122.169 44.0543 122.461 44.5679C122.752 45.0814 122.902 45.657 122.911 46.2945ZM119.758 44.0897C119.278 44.0897 118.861 44.2314 118.51 44.5147C118.158 44.7892 117.926 45.2187 117.815 45.8031H121.611V45.6968C121.568 45.2275 121.362 44.8423 120.994 44.5413C120.633 44.2402 120.221 44.0897 119.758 44.0897Z" fill="#0050FF"/>
<path d="M125.656 49.4025C125.656 49.5796 125.596 49.7301 125.476 49.8541C125.356 49.9781 125.21 50.04 125.039 50.04C124.867 50.04 124.721 49.9781 124.601 49.8541C124.489 49.7301 124.434 49.5796 124.434 49.4025V40.8489C124.434 40.6718 124.494 40.5213 124.614 40.3973C124.734 40.2733 124.88 40.2113 125.051 40.2113C125.223 40.2113 125.365 40.2733 125.476 40.3973C125.596 40.5213 125.656 40.6718 125.656 40.8489V49.4025Z" fill="#0050FF"/>
<path d="M128.744 49.4025C128.744 49.5796 128.684 49.7301 128.564 49.8541C128.452 49.9781 128.306 50.04 128.126 50.04C127.955 50.04 127.809 49.9781 127.689 49.8541C127.577 49.7301 127.521 49.5796 127.521 49.4025V43.6514C127.521 43.4743 127.577 43.3238 127.689 43.1998C127.809 43.0758 127.955 43.0139 128.126 43.0139C128.306 43.0139 128.452 43.0758 128.564 43.1998C128.684 43.3238 128.744 43.4743 128.744 43.6514V49.4025ZM128.126 42.1372C127.877 42.1372 127.697 42.093 127.586 42.0044C127.483 41.907 127.431 41.7565 127.431 41.5528V41.3403C127.431 41.1278 127.487 40.9773 127.599 40.8887C127.719 40.8002 127.899 40.7559 128.139 40.7559C128.379 40.7559 128.551 40.8046 128.654 40.902C128.765 40.9906 128.821 41.1367 128.821 41.3403V41.5528C128.821 41.7653 128.765 41.9159 128.654 42.0044C128.542 42.093 128.367 42.1372 128.126 42.1372Z" fill="#0050FF"/>
<path d="M135.649 43.0139C135.812 43.0139 135.95 43.0714 136.061 43.1865C136.173 43.2928 136.228 43.4212 136.228 43.5717C136.228 43.6514 136.198 43.7621 136.138 43.9037L133.693 49.6416C133.642 49.7567 133.569 49.8497 133.474 49.9205C133.38 49.9913 133.277 50.0312 133.165 50.04C133.028 50.0578 132.9 50.0312 132.779 49.9604C132.668 49.8895 132.582 49.7833 132.522 49.6416L130.077 43.9037C130.034 43.7709 130.012 43.6602 130.012 43.5717C130.012 43.43 130.068 43.3016 130.18 43.1865C130.291 43.0714 130.437 43.0139 130.617 43.0139C130.746 43.0139 130.862 43.0493 130.965 43.1201C131.068 43.1821 131.149 43.2795 131.209 43.4123L133.153 48.0743L135.096 43.4123C135.216 43.1467 135.4 43.0139 135.649 43.0139Z" fill="#0050FF"/>
<path d="M143.409 46.2945C143.401 46.4539 143.336 46.5911 143.216 46.7063C143.096 46.8125 142.954 46.8656 142.791 46.8656H138.261C138.321 47.512 138.557 48.03 138.969 48.4196C139.39 48.8092 139.9 49.004 140.501 49.004C140.912 49.004 141.247 48.9421 141.504 48.8181C141.762 48.6941 141.989 48.5347 142.187 48.3399C142.315 48.2603 142.44 48.2204 142.56 48.2204C142.706 48.2204 142.826 48.2735 142.92 48.3798C143.023 48.486 143.075 48.61 143.075 48.7517C143.075 48.9376 142.989 49.1059 142.817 49.2564C142.568 49.5132 142.238 49.7301 141.826 49.9072C141.414 50.0843 140.994 50.1729 140.565 50.1729C139.87 50.1729 139.257 50.0223 138.725 49.7213C138.201 49.4202 137.794 48.9996 137.502 48.4595C137.219 47.9193 137.077 47.3084 137.077 46.6266C137.077 45.8828 137.223 45.232 137.515 44.6741C137.815 44.1074 138.206 43.6735 138.686 43.3725C139.175 43.0714 139.698 42.9209 140.256 42.9209C140.805 42.9209 141.32 43.067 141.8 43.3592C142.281 43.6514 142.667 44.0543 142.959 44.5679C143.25 45.0814 143.401 45.657 143.409 46.2945ZM140.256 44.0897C139.776 44.0897 139.36 44.2314 139.008 44.5147C138.656 44.7892 138.424 45.2187 138.313 45.8031H142.109V45.6968C142.066 45.2275 141.861 44.8423 141.492 44.5413C141.131 44.2402 140.719 44.0897 140.256 44.0897Z" fill="#0050FF"/>
<path d="M148.188 42.9209C148.411 42.9209 148.604 42.9829 148.767 43.1068C148.93 43.2219 149.011 43.368 149.011 43.5451C149.011 43.7576 148.956 43.9215 148.844 44.0366C148.741 44.1428 148.612 44.196 148.458 44.196C148.381 44.196 148.265 44.1694 148.111 44.1163C147.93 44.0543 147.789 44.0233 147.686 44.0233C147.42 44.0233 147.158 44.1207 146.901 44.3155C146.652 44.5014 146.446 44.7627 146.283 45.0991C146.129 45.4268 146.051 45.7942 146.051 46.2015V49.4025C146.051 49.5796 145.991 49.7301 145.871 49.8541C145.76 49.9781 145.614 50.04 145.434 50.04C145.254 50.04 145.108 49.9825 144.996 49.8674C144.885 49.7434 144.829 49.5885 144.829 49.4025V43.7178C144.829 43.5407 144.885 43.3902 144.996 43.2662C145.116 43.1422 145.262 43.0803 145.434 43.0803C145.614 43.0803 145.76 43.1422 145.871 43.2662C145.991 43.3902 146.051 43.5407 146.051 43.7178V44.3952C146.24 43.9613 146.523 43.6115 146.901 43.3459C147.278 43.0714 147.707 42.9297 148.188 42.9209Z" fill="#0050FF"/>
<path d="M155.164 43.0139C155.344 43.0139 155.49 43.0758 155.602 43.1998C155.722 43.3238 155.782 43.4743 155.782 43.6514V49.3892C155.782 50.4961 155.486 51.324 154.894 51.873C154.302 52.422 153.521 52.6965 152.552 52.6965C152.234 52.6965 151.921 52.6655 151.612 52.6035C151.303 52.5415 151.05 52.4574 150.853 52.3511C150.535 52.2006 150.377 51.9969 150.377 51.7401C150.377 51.6959 150.385 51.6383 150.402 51.5675C150.454 51.4169 150.527 51.3018 150.621 51.2221C150.716 51.1425 150.823 51.1026 150.943 51.1026C151.012 51.1026 151.076 51.1159 151.136 51.1425C151.402 51.2664 151.638 51.3638 151.844 51.4347C152.05 51.5055 152.29 51.5409 152.564 51.5409C153.894 51.5409 154.559 50.837 154.559 49.4291V49.1634C154.328 49.4822 154.027 49.7301 153.658 49.9072C153.298 50.0843 152.882 50.1729 152.41 50.1729C151.698 50.1729 151.14 49.9382 150.737 49.4689C150.342 48.9996 150.145 48.3842 150.145 47.6227V43.6514C150.145 43.4654 150.201 43.3149 150.312 43.1998C150.424 43.0758 150.57 43.0139 150.75 43.0139C150.93 43.0139 151.076 43.0758 151.187 43.1998C151.308 43.3238 151.368 43.4743 151.368 43.6514V47.2907C151.368 47.8751 151.492 48.309 151.741 48.5923C151.99 48.8668 152.367 49.004 152.873 49.004C153.362 49.004 153.766 48.8447 154.083 48.5259C154.401 48.2071 154.559 47.7954 154.559 47.2907V43.6514C154.559 43.4654 154.615 43.3149 154.727 43.1998C154.838 43.0758 154.984 43.0139 155.164 43.0139Z" fill="#0050FF"/>
<path d="M164.552 42.9607C165.135 42.9607 165.663 43.1157 166.135 43.4256C166.606 43.7267 166.975 44.1517 167.241 44.7007C167.516 45.2497 167.653 45.8695 167.653 46.5602C167.653 47.2508 167.516 47.8706 167.241 48.4196C166.975 48.9598 166.606 49.3848 166.135 49.6947C165.663 50.0046 165.144 50.1596 164.577 50.1596C164.131 50.1596 163.715 50.0578 163.329 49.8541C162.943 49.6504 162.63 49.4025 162.39 49.1103V52.0589C162.39 52.236 162.33 52.3865 162.209 52.5105C162.098 52.6345 161.952 52.6965 161.772 52.6965C161.6 52.6965 161.454 52.6345 161.334 52.5105C161.223 52.3954 161.167 52.2449 161.167 52.0589V43.7045C161.167 43.5186 161.223 43.3636 161.334 43.2396C161.446 43.1157 161.592 43.0537 161.772 43.0537C161.952 43.0537 162.098 43.1157 162.209 43.2396C162.33 43.3636 162.39 43.5186 162.39 43.7045V44.0897C162.595 43.7798 162.896 43.5141 163.29 43.2928C163.685 43.0714 164.106 42.9607 164.552 42.9607ZM164.41 48.9908C164.805 48.9908 165.161 48.8845 165.478 48.672C165.796 48.4595 166.04 48.1717 166.212 47.8087C166.392 47.4368 166.482 47.0206 166.482 46.5602C166.482 46.0997 166.392 45.688 166.212 45.3249C166.04 44.953 165.796 44.6608 165.478 44.4483C165.161 44.2358 164.805 44.1295 164.41 44.1295C164.007 44.1295 163.647 44.2358 163.329 44.4483C163.012 44.652 162.763 44.9397 162.583 45.3116C162.411 45.6835 162.325 46.0997 162.325 46.5602C162.325 47.0206 162.411 47.4368 162.583 47.8087C162.763 48.1806 163.012 48.4728 163.329 48.6853C163.647 48.8889 164.007 48.9908 164.41 48.9908Z" fill="#0050FF"/>
<path d="M174.992 46.2945C174.984 46.4539 174.919 46.5911 174.799 46.7063C174.679 46.8125 174.537 46.8656 174.374 46.8656H169.844C169.904 47.512 170.14 48.03 170.552 48.4196C170.973 48.8092 171.483 49.004 172.084 49.004C172.495 49.004 172.83 48.9421 173.087 48.8181C173.345 48.6941 173.572 48.5347 173.769 48.3399C173.898 48.2603 174.023 48.2204 174.143 48.2204C174.289 48.2204 174.409 48.2735 174.503 48.3798C174.606 48.486 174.657 48.61 174.657 48.7517C174.657 48.9376 174.572 49.1059 174.4 49.2564C174.151 49.5132 173.821 49.7301 173.409 49.9072C172.997 50.0843 172.577 50.1729 172.148 50.1729C171.453 50.1729 170.84 50.0223 170.308 49.7213C169.784 49.4202 169.377 48.9996 169.085 48.4595C168.802 47.9193 168.66 47.3084 168.66 46.6266C168.66 45.8828 168.806 45.232 169.098 44.6741C169.398 44.1074 169.789 43.6735 170.269 43.3725C170.758 43.0714 171.281 42.9209 171.839 42.9209C172.388 42.9209 172.903 43.067 173.383 43.3592C173.864 43.6514 174.25 44.0543 174.542 44.5679C174.833 45.0814 174.984 45.657 174.992 46.2945ZM171.839 44.0897C171.359 44.0897 170.943 44.2314 170.591 44.5147C170.239 44.7892 170.007 45.2187 169.896 45.8031H173.692V45.6968C173.649 45.2275 173.443 44.8423 173.075 44.5413C172.714 44.2402 172.302 44.0897 171.839 44.0897Z" fill="#0050FF"/>
<path d="M182.795 46.5602C182.795 47.2508 182.645 47.8706 182.345 48.4196C182.044 48.9686 181.632 49.3981 181.109 49.708C180.594 50.0179 180.024 50.1729 179.397 50.1729C178.771 50.1729 178.196 50.0179 177.673 49.708C177.158 49.3981 176.751 48.9686 176.45 48.4196C176.15 47.8706 176 47.2508 176 46.5602C176 45.8695 176.15 45.2452 176.45 44.6874C176.751 44.1295 177.158 43.6957 177.673 43.3857C178.196 43.0758 178.771 42.9209 179.397 42.9209C180.024 42.9209 180.594 43.0758 181.109 43.3857C181.632 43.6957 182.044 44.1295 182.345 44.6874C182.645 45.2452 182.795 45.8695 182.795 46.5602ZM181.572 46.5602C181.572 46.082 181.474 45.657 181.276 45.2851C181.088 44.9043 180.826 44.6121 180.491 44.4085C180.165 44.196 179.801 44.0897 179.397 44.0897C178.994 44.0897 178.625 44.196 178.291 44.4085C177.965 44.6121 177.703 44.9043 177.506 45.2851C177.317 45.657 177.223 46.082 177.223 46.5602C177.223 47.0295 177.317 47.4501 177.506 47.8219C177.703 48.1938 177.965 48.486 178.291 48.6986C178.625 48.9022 178.994 49.004 179.397 49.004C179.801 49.004 180.165 48.9022 180.491 48.6986C180.826 48.486 181.088 48.1938 181.276 47.8219C181.474 47.4501 181.572 47.0295 181.572 46.5602Z" fill="#0050FF"/>
<path d="M187.601 42.9607C188.184 42.9607 188.712 43.1157 189.184 43.4256C189.656 43.7267 190.025 44.1517 190.291 44.7007C190.565 45.2497 190.703 45.8695 190.703 46.5602C190.703 47.2508 190.565 47.8706 190.291 48.4196C190.025 48.9598 189.656 49.3848 189.184 49.6947C188.712 50.0046 188.193 50.1596 187.627 50.1596C187.181 50.1596 186.765 50.0578 186.378 49.8541C185.992 49.6504 185.679 49.4025 185.439 49.1103V52.0589C185.439 52.236 185.379 52.3865 185.259 52.5105C185.147 52.6345 185.001 52.6965 184.821 52.6965C184.65 52.6965 184.504 52.6345 184.384 52.5105C184.272 52.3954 184.216 52.2449 184.216 52.0589V43.7045C184.216 43.5186 184.272 43.3636 184.384 43.2396C184.495 43.1157 184.641 43.0537 184.821 43.0537C185.001 43.0537 185.147 43.1157 185.259 43.2396C185.379 43.3636 185.439 43.5186 185.439 43.7045V44.0897C185.645 43.7798 185.945 43.5141 186.34 43.2928C186.734 43.0714 187.155 42.9607 187.601 42.9607ZM187.459 48.9908C187.854 48.9908 188.21 48.8845 188.528 48.672C188.845 48.4595 189.09 48.1717 189.261 47.8087C189.441 47.4368 189.531 47.0206 189.531 46.5602C189.531 46.0997 189.441 45.688 189.261 45.3249C189.09 44.953 188.845 44.6608 188.528 44.4483C188.21 44.2358 187.854 44.1295 187.459 44.1295C187.056 44.1295 186.696 44.2358 186.378 44.4483C186.061 44.652 185.812 44.9397 185.632 45.3116C185.46 45.6835 185.375 46.0997 185.375 46.5602C185.375 47.0206 185.46 47.4368 185.632 47.8087C185.812 48.1806 186.061 48.4728 186.378 48.6853C186.696 48.8889 187.056 48.9908 187.459 48.9908Z" fill="#0050FF"/>
<path d="M193.447 49.4025C193.447 49.5796 193.387 49.7301 193.267 49.8541C193.147 49.9781 193.001 50.04 192.829 50.04C192.658 50.04 192.512 49.9781 192.392 49.8541C192.28 49.7301 192.224 49.5796 192.224 49.4025V40.8489C192.224 40.6718 192.285 40.5213 192.405 40.3973C192.525 40.2733 192.671 40.2113 192.842 40.2113C193.014 40.2113 193.155 40.2733 193.267 40.3973C193.387 40.5213 193.447 40.6718 193.447 40.8489V49.4025Z" fill="#0050FF"/>
<path d="M201.171 46.2945C201.162 46.4539 201.098 46.5911 200.978 46.7063C200.858 46.8125 200.716 46.8656 200.553 46.8656H196.023C196.083 47.512 196.319 48.03 196.731 48.4196C197.151 48.8092 197.662 49.004 198.262 49.004C198.674 49.004 199.009 48.9421 199.266 48.8181C199.524 48.6941 199.751 48.5347 199.948 48.3399C200.077 48.2603 200.201 48.2204 200.321 48.2204C200.467 48.2204 200.587 48.2735 200.682 48.3798C200.785 48.486 200.836 48.61 200.836 48.7517C200.836 48.9376 200.75 49.1059 200.579 49.2564C200.33 49.5132 200 49.7301 199.588 49.9072C199.176 50.0843 198.756 50.1729 198.327 50.1729C197.632 50.1729 197.018 50.0223 196.486 49.7213C195.963 49.4202 195.555 48.9996 195.264 48.4595C194.981 47.9193 194.839 47.3084 194.839 46.6266C194.839 45.8828 194.985 45.232 195.277 44.6741C195.577 44.1074 195.967 43.6735 196.448 43.3725C196.937 43.0714 197.46 42.9209 198.018 42.9209C198.567 42.9209 199.082 43.067 199.562 43.3592C200.043 43.6514 200.429 44.0543 200.72 44.5679C201.012 45.0814 201.162 45.657 201.171 46.2945ZM198.018 44.0897C197.537 44.0897 197.121 44.2314 196.769 44.5147C196.418 44.7892 196.186 45.2187 196.075 45.8031H199.871V45.6968C199.828 45.2275 199.622 44.8423 199.253 44.5413C198.893 44.2402 198.481 44.0897 198.018 44.0897Z" fill="#0050FF"/>
<path d="M203.183 47.2508C202.942 47.2508 202.814 47.1091 202.796 46.8258L202.513 41.5396C202.496 41.3093 202.548 41.119 202.668 40.9684C202.796 40.8179 202.964 40.7426 203.17 40.7426C203.384 40.7426 203.551 40.8179 203.672 40.9684C203.792 41.119 203.843 41.3093 203.826 41.5396L203.556 46.8258C203.547 46.9675 203.509 47.0737 203.44 47.1446C203.38 47.2154 203.294 47.2508 203.183 47.2508ZM203.105 50.04C202.899 50.04 202.741 49.9825 202.629 49.8674C202.526 49.7434 202.475 49.5752 202.475 49.3627V49.1103C202.475 48.8978 202.526 48.734 202.629 48.6189C202.741 48.4949 202.899 48.4329 203.105 48.4329H203.247C203.453 48.4329 203.607 48.4949 203.71 48.6189C203.822 48.734 203.877 48.8978 203.877 49.1103V49.3627C203.877 49.5752 203.822 49.7434 203.71 49.8674C203.607 49.9825 203.453 50.04 203.247 50.04H203.105Z" fill="#0050FF"/>
</svg>
