<svg width="395" height="323" viewBox="0 0 395 323" fill="none" xmlns="http://www.w3.org/2000/svg">
<g clip-path="url(#clip0)">
<path opacity="0.1" d="M385.473 321.629C388.802 318.294 384.949 309.026 376.866 300.93C368.783 292.833 359.531 288.973 356.201 292.308C352.872 295.643 356.725 304.91 364.809 313.007C372.892 321.104 382.143 324.964 385.473 321.629Z" fill="#3DB4F8"/>
<path d="M372.302 308.322C374.829 308.322 376.878 305.634 376.878 302.319C376.878 299.004 374.829 296.317 372.302 296.317C369.774 296.317 367.726 299.004 367.726 302.319C367.726 305.634 369.774 308.322 372.302 308.322Z" fill="#3F3D56"/>
<path d="M372.302 300.987C374.829 300.987 376.878 298.299 376.878 294.984C376.878 291.669 374.829 288.982 372.302 288.982C369.774 288.982 367.726 291.669 367.726 294.984C367.726 298.299 369.774 300.987 372.302 300.987Z" fill="#3F3D56"/>
<path d="M372.302 293.651C374.829 293.651 376.878 290.964 376.878 287.649C376.878 284.334 374.829 281.646 372.302 281.646C369.774 281.646 367.726 284.334 367.726 287.649C367.726 290.964 369.774 293.651 372.302 293.651Z" fill="#3F3D56"/>
<path d="M372.302 286.316C374.829 286.316 376.878 283.629 376.878 280.313C376.878 276.998 374.829 274.311 372.302 274.311C369.774 274.311 367.726 276.998 367.726 280.313C367.726 283.629 369.774 286.316 372.302 286.316Z" fill="#3F3D56"/>
<path d="M372.302 278.98C374.829 278.98 376.878 276.293 376.878 272.978C376.878 269.663 374.829 266.976 372.302 266.976C369.774 266.976 367.726 269.663 367.726 272.978C367.726 276.293 369.774 278.98 372.302 278.98Z" fill="#3F3D56"/>
<path d="M372.302 271.645C374.829 271.645 376.878 268.958 376.878 265.643C376.878 262.328 374.829 259.64 372.302 259.64C369.774 259.64 367.726 262.328 367.726 265.643C367.726 268.958 369.774 271.645 372.302 271.645Z" fill="#3F3D56"/>
<path d="M372.302 264.31C374.829 264.31 376.878 261.622 376.878 258.307C376.878 254.992 374.829 252.305 372.302 252.305C369.774 252.305 367.726 254.992 367.726 258.307C367.726 261.622 369.774 264.31 372.302 264.31Z" fill="#3F3D56"/>
<path d="M389.435 208.109C390.061 207.312 390.631 206.473 391.141 205.597L379.113 203.619L392.121 203.713C393.369 200.994 394.051 198.048 394.124 195.057C394.197 192.065 393.661 189.089 392.548 186.312L375.1 195.382L391.183 183.531C389.677 180.919 387.649 178.645 385.227 176.853C382.804 175.06 380.039 173.786 377.104 173.111C374.169 172.436 371.126 172.374 368.166 172.929C365.205 173.483 362.391 174.643 359.897 176.335C357.404 178.028 355.286 180.216 353.674 182.765C352.063 185.314 350.992 188.167 350.531 191.148C350.069 194.13 350.225 197.174 350.989 200.092C351.753 203.01 353.11 205.739 354.973 208.109C353.998 209.349 353.161 210.691 352.474 212.112L368.084 220.229L351.451 214.633C350.283 218.093 349.994 221.791 350.612 225.392C351.229 228.993 352.732 232.382 354.986 235.254C352.443 238.494 350.861 242.384 350.421 246.481C349.98 250.579 350.7 254.717 352.498 258.424C354.295 262.131 357.098 265.257 360.585 267.443C364.072 269.63 368.103 270.789 372.217 270.789C376.331 270.789 380.362 269.63 383.849 267.443C387.336 265.257 390.138 262.131 391.936 258.424C393.733 254.717 394.453 250.579 394.013 246.481C393.573 242.384 391.991 238.494 389.447 235.254C392.486 231.384 394.139 226.602 394.139 221.677C394.139 216.753 392.486 211.971 389.447 208.1L389.435 208.109Z" fill="#3DB4F8"/>
<path opacity="0.1" d="M350.282 221.686C350.274 226.612 351.927 231.396 354.973 235.263C352.43 238.502 350.848 242.393 350.408 246.49C349.967 250.587 350.687 254.726 352.485 258.433C354.282 262.14 357.085 265.265 360.572 267.452C364.059 269.638 368.09 270.798 372.204 270.798C376.318 270.798 380.349 269.638 383.836 267.452C387.323 265.265 390.126 262.14 391.923 258.433C393.72 254.726 394.44 250.587 394 246.49C393.56 242.393 391.978 238.502 389.434 235.263C392.373 231.529 350.282 219.221 350.282 221.686Z" fill="black"/>
<path d="M361.358 0.830322V308.429L257.292 293.903L130.788 319.754L129.769 319.964L29.1152 292.194V24.7546L133.608 0.830322L247.909 24.7546L252.255 23.8361L361.358 0.830322Z" fill="#444053"/>
<path d="M343.871 17.6287V292.848L250.762 279.852L137.574 302.982L136.661 303.165L46.6016 278.323V39.0324L140.099 17.6287L242.365 39.0324L246.254 38.2121L343.871 17.6287Z" fill="white"/>
<path opacity="0.1" d="M257.292 293.903L130.788 319.754L133.607 0.830322L247.909 24.7546L252.255 23.8361L257.292 293.903Z" fill="black"/>
<g opacity="0.3">
<path opacity="0.3" d="M244.659 59.7866L244.71 149.289H281.816V112.548H345.364L352.828 102.961" stroke="#444053" stroke-width="3" stroke-miterlimit="10"/>
<path opacity="0.3" d="M38.0713 88.1968H176.044L184.574 84.3518H187.986V170.65H247.696L250.255 178.34V217.217H296.317V265.279" stroke="#444053" stroke-width="3" stroke-miterlimit="10"/>
<path opacity="0.3" d="M206.21 265.279V170.65" stroke="#444053" stroke-width="3" stroke-miterlimit="10"/>
<path opacity="0.3" d="M352.828 239.928H206.21" stroke="#444053" stroke-width="3" stroke-miterlimit="10"/>
<path opacity="0.3" d="M316.106 59.7866V265.279" stroke="#444053" stroke-width="3" stroke-miterlimit="10"/>
<path opacity="0.3" d="M37.645 221.763H352.828" stroke="#444053" stroke-width="3" stroke-miterlimit="10"/>
<path opacity="0.3" d="M76.0044 265.279V59.7866" stroke="#444053" stroke-width="3" stroke-miterlimit="10"/>
<path opacity="0.3" d="M149.269 59.7866V265.279" stroke="#444053" stroke-width="3" stroke-miterlimit="10"/>
<path opacity="0.3" d="M38.0713 111.694L281.816 112.548" stroke="#444053" stroke-width="3" stroke-miterlimit="10"/>
<path opacity="0.3" d="M109.011 60.1582V265.279" stroke="#444053" stroke-width="3" stroke-miterlimit="10"/>
<path opacity="0.3" d="M37.645 159.252H149.268L206.21 221.763" stroke="#444053" stroke-width="3" stroke-miterlimit="10"/>
<path opacity="0.3" d="M218.544 59.7866V170.65" stroke="#444053" stroke-width="3" stroke-miterlimit="10"/>
<path opacity="0.3" d="M206.21 190.507H352.828" stroke="#444053" stroke-width="3" stroke-miterlimit="10"/>
</g>
<path d="M250.042 189.662H206.965V170.864L247.696 170.65L250.255 177.913L250.042 189.662Z" fill="#3DB4F8"/>
<path d="M228.717 92.2554C222.464 92.2554 216.467 94.7436 212.045 99.1725C207.624 103.602 205.14 109.609 205.14 115.872C205.14 128.915 228.717 171.291 228.717 171.291C228.717 171.291 252.293 128.932 252.293 115.872C252.293 109.609 249.809 103.602 245.388 99.1725C240.966 94.7436 234.969 92.2554 228.717 92.2554ZM228.717 125.946C226.665 125.946 224.66 125.337 222.954 124.195C221.248 123.053 219.919 121.431 219.134 119.532C218.349 117.634 218.143 115.544 218.543 113.529C218.944 111.514 219.931 109.662 221.382 108.209C222.833 106.756 224.681 105.767 226.693 105.366C228.705 104.965 230.791 105.17 232.686 105.957C234.581 106.743 236.201 108.075 237.341 109.784C238.481 111.492 239.089 113.501 239.089 115.556C239.088 118.311 237.995 120.952 236.049 122.9C234.104 124.848 231.467 125.942 228.717 125.942V125.946Z" fill="#3DB4F8"/>
<path opacity="0.1" d="M228.717 92.2554C222.464 92.2554 216.467 94.7436 212.045 99.1725C207.624 103.602 205.14 109.609 205.14 115.872C205.14 128.915 228.717 171.291 228.717 171.291C228.717 171.291 252.293 128.932 252.293 115.872C252.293 109.609 249.809 103.602 245.388 99.1725C240.966 94.7436 234.969 92.2554 228.717 92.2554ZM228.717 125.946C226.665 125.946 224.66 125.337 222.954 124.195C221.248 123.053 219.919 121.431 219.134 119.532C218.349 117.634 218.143 115.544 218.543 113.529C218.944 111.514 219.931 109.662 221.382 108.209C222.833 106.756 224.681 105.767 226.693 105.366C228.705 104.965 230.791 105.17 232.686 105.957C234.581 106.743 236.201 108.075 237.341 109.784C238.481 111.492 239.089 113.501 239.089 115.556C239.088 118.311 237.995 120.952 236.049 122.9C234.104 124.848 231.467 125.942 228.717 125.942V125.946Z" fill="black"/>
<path d="M228.717 95.6731C222.464 95.6731 216.467 98.1613 212.045 102.59C207.624 107.019 205.14 113.026 205.14 119.29C205.14 132.333 228.717 174.709 228.717 174.709C228.717 174.709 252.293 132.35 252.293 119.29C252.293 113.026 249.809 107.019 245.388 102.59C240.966 98.1613 234.969 95.6731 228.717 95.6731ZM228.717 129.364C226.665 129.364 224.66 128.754 222.954 127.613C221.248 126.471 219.919 124.848 219.134 122.95C218.349 121.051 218.143 118.962 218.543 116.947C218.944 114.931 219.931 113.08 221.382 111.627C222.833 110.174 224.681 109.184 226.693 108.783C228.705 108.382 230.791 108.588 232.686 109.375C234.581 110.161 236.201 111.493 237.341 113.201C238.481 114.91 239.089 116.919 239.089 118.974C239.088 121.729 237.995 124.37 236.049 126.318C234.104 128.265 231.467 129.359 228.717 129.359V129.364Z" fill="#3DB4F8"/>
<path opacity="0.1" d="M220.725 319.568C227.962 316.447 232.788 311.495 231.504 308.509C230.22 305.523 223.313 305.633 216.076 308.754C208.84 311.876 204.014 316.828 205.298 319.814C206.582 322.8 213.489 322.69 220.725 319.568Z" fill="#3DB4F8"/>
<path d="M218.233 315.969C219.976 315.969 221.389 314.118 221.389 311.834C221.389 309.55 219.976 307.698 218.233 307.698C216.49 307.698 215.077 309.55 215.077 311.834C215.077 314.118 216.49 315.969 218.233 315.969Z" fill="#3F3D56"/>
<path d="M218.233 310.911C219.976 310.911 221.389 309.059 221.389 306.775C221.389 304.491 219.976 302.64 218.233 302.64C216.49 302.64 215.077 304.491 215.077 306.775C215.077 309.059 216.49 310.911 218.233 310.911Z" fill="#3F3D56"/>
<path d="M218.233 305.857C219.976 305.857 221.389 304.005 221.389 301.721C221.389 299.437 219.976 297.586 218.233 297.586C216.49 297.586 215.077 299.437 215.077 301.721C215.077 304.005 216.49 305.857 218.233 305.857Z" fill="#3F3D56"/>
<path d="M218.233 300.803C219.976 300.803 221.389 298.951 221.389 296.667C221.389 294.383 219.976 292.532 218.233 292.532C216.49 292.532 215.077 294.383 215.077 296.667C215.077 298.951 216.49 300.803 218.233 300.803Z" fill="#3F3D56"/>
<path d="M218.233 295.745C219.976 295.745 221.389 293.893 221.389 291.609C221.389 289.325 219.976 287.474 218.233 287.474C216.49 287.474 215.077 289.325 215.077 291.609C215.077 293.893 216.49 295.745 218.233 295.745Z" fill="#3F3D56"/>
<path d="M218.233 290.69C219.976 290.69 221.389 288.839 221.389 286.555C221.389 284.271 219.976 282.419 218.233 282.419C216.49 282.419 215.077 284.271 215.077 286.555C215.077 288.839 216.49 290.69 218.233 290.69Z" fill="#3F3D56"/>
<path d="M218.233 285.636C219.976 285.636 221.389 283.785 221.389 281.501C221.389 279.217 219.976 277.365 218.233 277.365C216.49 277.365 215.077 279.217 215.077 281.501C215.077 283.785 216.49 285.636 218.233 285.636Z" fill="#3F3D56"/>
<path d="M206.423 246.901C205.993 246.358 205.6 245.787 205.246 245.192L213.537 243.825L204.581 243.893C203.722 242.019 203.253 239.989 203.204 237.927C203.154 235.865 203.524 233.815 204.291 231.901L216.318 238.13L205.229 229.961C206.268 228.162 207.665 226.595 209.335 225.36C211.004 224.125 212.91 223.248 214.932 222.783C216.955 222.318 219.052 222.276 221.092 222.658C223.131 223.041 225.071 223.84 226.789 225.006C228.507 226.172 229.966 227.68 231.077 229.436C232.188 231.193 232.925 233.159 233.244 235.213C233.562 237.267 233.455 239.365 232.928 241.376C232.402 243.387 231.468 245.267 230.184 246.901C230.849 247.757 231.421 248.682 231.89 249.66L221.138 255.261L232.61 251.416C233.416 253.802 233.615 256.35 233.19 258.832C232.765 261.314 231.729 263.65 230.175 265.63C231.929 267.863 233.02 270.544 233.323 273.369C233.627 276.193 233.131 279.046 231.892 281.602C230.653 284.157 228.721 286.311 226.318 287.819C223.914 289.326 221.135 290.126 218.299 290.126C215.463 290.126 212.685 289.326 210.281 287.819C207.877 286.311 205.945 284.157 204.707 281.602C203.468 279.046 202.972 276.193 203.275 273.369C203.579 270.544 204.67 267.863 206.423 265.63C204.329 262.962 203.19 259.666 203.19 256.272C203.19 252.877 204.329 249.582 206.423 246.913V246.901Z" fill="#3DB4F8"/>
<path opacity="0.1" d="M233.408 256.244C233.414 259.64 232.275 262.938 230.175 265.604C231.929 267.837 233.02 270.518 233.323 273.343C233.627 276.167 233.131 279.02 231.892 281.576C230.653 284.131 228.721 286.286 226.318 287.793C223.914 289.3 221.135 290.1 218.299 290.1C215.463 290.1 212.685 289.3 210.281 287.793C207.877 286.286 205.945 284.131 204.707 281.576C203.468 279.02 202.972 276.167 203.275 273.343C203.579 270.518 204.67 267.837 206.423 265.604C204.398 263.041 233.408 254.56 233.408 256.244Z" fill="black"/>
<path opacity="0.1" d="M35.3166 312.229C38.6461 308.894 34.7926 299.627 26.7095 291.53C18.6264 283.433 9.3747 279.573 6.04519 282.908C2.71569 286.244 6.56922 295.511 14.6523 303.608C22.7354 311.704 31.9871 315.565 35.3166 312.229Z" fill="#3DB4F8"/>
<path d="M22.1462 298.923C24.6736 298.923 26.7225 296.236 26.7225 292.921C26.7225 289.606 24.6736 286.918 22.1462 286.918C19.6187 286.918 17.5698 289.606 17.5698 292.921C17.5698 296.236 19.6187 298.923 22.1462 298.923Z" fill="#3F3D56"/>
<path d="M22.1462 291.588C24.6736 291.588 26.7225 288.9 26.7225 285.585C26.7225 282.27 24.6736 279.583 22.1462 279.583C19.6187 279.583 17.5698 282.27 17.5698 285.585C17.5698 288.9 19.6187 291.588 22.1462 291.588Z" fill="#3F3D56"/>
<path d="M22.1462 284.252C24.6736 284.252 26.7225 281.565 26.7225 278.25C26.7225 274.935 24.6736 272.248 22.1462 272.248C19.6187 272.248 17.5698 274.935 17.5698 278.25C17.5698 281.565 19.6187 284.252 22.1462 284.252Z" fill="#3F3D56"/>
<path d="M22.1462 276.917C24.6736 276.917 26.7225 274.23 26.7225 270.915C26.7225 267.599 24.6736 264.912 22.1462 264.912C19.6187 264.912 17.5698 267.599 17.5698 270.915C17.5698 274.23 19.6187 276.917 22.1462 276.917Z" fill="#3F3D56"/>
<path d="M22.1462 269.582C24.6736 269.582 26.7225 266.894 26.7225 263.579C26.7225 260.264 24.6736 257.577 22.1462 257.577C19.6187 257.577 17.5698 260.264 17.5698 263.579C17.5698 266.894 19.6187 269.582 22.1462 269.582Z" fill="#3F3D56"/>
<path d="M22.1462 262.246C24.6736 262.246 26.7225 259.559 26.7225 256.244C26.7225 252.929 24.6736 250.241 22.1462 250.241C19.6187 250.241 17.5698 252.929 17.5698 256.244C17.5698 259.559 19.6187 262.246 22.1462 262.246Z" fill="#3F3D56"/>
<path d="M22.1462 254.911C24.6736 254.911 26.7225 252.223 26.7225 248.908C26.7225 245.593 24.6736 242.906 22.1462 242.906C19.6187 242.906 17.5698 245.593 17.5698 248.908C17.5698 252.223 19.6187 254.911 22.1462 254.911Z" fill="#3F3D56"/>
<path d="M39.2788 198.71C39.905 197.913 40.4751 197.074 40.9848 196.198L28.9575 194.22L41.9658 194.314C43.2136 191.595 43.895 188.649 43.9684 185.658C44.0417 182.666 43.5054 179.69 42.3923 176.913L24.9442 185.983L41.0275 174.132C39.5209 171.52 37.4933 169.246 35.071 167.454C32.6487 165.661 29.8837 164.387 26.9483 163.712C24.013 163.037 20.9703 162.975 18.0099 163.53C15.0495 164.084 12.235 165.244 9.74172 166.936C7.24849 168.629 5.13004 170.817 3.51846 173.366C1.90688 175.915 0.83673 178.768 0.37474 181.75C-0.0872504 184.731 0.068827 187.775 0.833232 190.693C1.59764 193.611 2.95398 196.34 4.8177 198.71C3.84274 199.95 3.00476 201.292 2.31841 202.713L17.9283 210.83L1.29481 205.234C0.126873 208.695 -0.161468 212.392 0.45586 215.993C1.07319 219.594 2.57672 222.983 4.83049 225.856C2.28705 229.095 0.704847 232.985 0.264776 237.083C-0.175294 241.18 0.544526 245.319 2.34194 249.025C4.13936 252.732 6.94183 255.858 10.4289 258.044C13.916 260.231 17.947 261.391 22.0611 261.391C26.1751 261.391 30.2061 260.231 33.6932 258.044C37.1803 255.858 39.9827 252.732 41.7802 249.025C43.5776 245.319 44.2974 241.18 43.8573 237.083C43.4173 232.985 41.8351 229.095 39.2916 225.856C42.3307 221.985 43.9828 217.203 43.9828 212.278C43.9828 207.354 42.3307 202.572 39.2916 198.701L39.2788 198.71Z" fill="#3DB4F8"/>
<path opacity="0.1" d="M0.126007 212.287C0.117765 217.213 1.77096 221.997 4.8175 225.864C2.27406 229.103 0.691856 232.994 0.251785 237.091C-0.188286 241.189 0.531534 245.327 2.32895 249.034C4.12637 252.741 6.92883 255.866 10.4159 258.053C13.903 260.24 17.934 261.399 22.0481 261.399C26.1621 261.399 30.1931 260.24 33.6802 258.053C37.1673 255.866 39.9698 252.741 41.7672 249.034C43.5646 245.327 44.2844 241.189 43.8443 237.091C43.4043 232.994 41.8221 229.103 39.2786 225.864C42.2172 222.13 0.126007 209.822 0.126007 212.287Z" fill="black"/>
</g>
<defs>
<clipPath id="clip0">
<rect width="394" height="322" fill="white" transform="translate(0.125977 0.830322)"/>
</clipPath>
</defs>
</svg>
