<svg width="540" height="563" viewBox="0 0 540 563" fill="none" xmlns="http://www.w3.org/2000/svg">
<path d="M511.742 524.62C511.742 545.816 397.186 563 255.871 563C114.556 563 0 545.816 0 524.62C0 509.615 57.4223 496.615 141.109 490.309C175.618 487.701 214.61 486.24 255.871 486.24C272.833 486.24 289.406 486.488 305.435 486.958C423.029 490.425 511.742 505.966 511.742 524.62Z" fill="#3F3D56"/>
<path opacity="0.1" d="M222.855 532.461C277.101 532.461 321.076 527.103 321.076 520.493C321.076 513.883 277.101 508.525 222.855 508.525C168.609 508.525 124.634 513.883 124.634 520.493C124.634 527.103 168.609 532.461 222.855 532.461Z" fill="black"/>
<path d="M222.443 529.16C273.726 529.16 315.299 484.816 315.299 430.114C315.299 375.413 273.726 331.069 222.443 331.069C171.159 331.069 129.586 375.413 129.586 430.114C129.586 484.816 171.159 529.16 222.443 529.16Z" fill="#3F3D56"/>
<path d="M251.744 488.716H193.967V541.54H251.744V488.716Z" fill="#3DB4F8"/>
<path d="M327.267 501.51L323.965 519.668L345.425 522.97L359.457 514.716L358.632 501.51H327.267Z" fill="#575A89"/>
<path d="M219.141 160.629C219.141 160.629 217.49 179.613 213.363 180.438C209.236 181.264 222.443 214.279 222.443 214.279H242.252L257.934 210.152L250.506 191.994C250.506 191.994 240.601 178.788 248.03 168.058C255.458 157.328 219.141 160.629 219.141 160.629Z" fill="#A0616A"/>
<path opacity="0.1" d="M219.141 160.629C219.141 160.629 217.49 179.613 213.363 180.438C209.236 181.264 222.443 214.279 222.443 214.279H242.252L257.934 210.152L250.506 191.994C250.506 191.994 240.601 178.788 248.03 168.058C255.458 157.328 219.141 160.629 219.141 160.629Z" fill="black"/>
<path d="M177.871 305.895C177.871 305.895 156.411 347.164 173.744 355.418C191.078 363.672 195.204 362.846 195.204 365.323C195.204 367.799 191.903 366.973 193.554 371.1C195.204 375.227 190.252 391.735 195.204 401.639C200.157 411.544 198.506 418.972 198.506 418.972C198.506 418.972 198.506 419.797 200.157 423.099C201.808 426.4 202.633 428.876 201.808 430.527C200.982 432.178 196.03 442.908 200.982 445.384C205.935 447.86 231.522 449.511 233.998 445.384C236.474 441.257 231.522 438.781 233.998 436.305C236.474 433.829 238.125 433.003 236.474 431.353C234.823 429.702 233.172 409.067 233.172 409.067C233.172 409.067 237.299 385.132 235.649 381.83C233.998 378.529 231.522 375.227 233.172 372.751C234.823 370.275 236.474 371.1 237.299 367.799C238.125 364.497 239.776 357.069 239.776 357.069L248.855 356.243L270.315 360.37C270.315 360.37 294.251 386.782 320.664 395.036C320.664 395.036 328.092 402.464 330.568 402.464C333.045 402.464 333.045 402.464 332.219 404.115C331.394 405.766 328.918 405.766 330.568 407.417C332.219 409.067 334.695 406.591 333.045 409.067C331.394 411.544 329.743 411.544 331.394 413.194C333.045 414.845 330.568 423.924 330.568 424.75C330.568 425.575 323.14 503.16 325.616 504.811C328.092 506.462 362.759 511.414 365.235 504.811C367.711 498.208 363.584 489.954 363.584 489.954C363.584 489.954 375.965 390.909 372.663 384.306C369.362 377.703 357.806 347.99 295.902 329.006C295.902 329.006 278.569 325.705 278.569 323.228C278.569 320.752 276.918 305.07 273.616 304.245C270.315 303.419 251.331 302.594 251.331 302.594L227.395 310.022L194.379 304.245L177.871 305.895Z" fill="#2F2E41"/>
<path d="M206.76 444.559L202.633 459.415C202.633 459.415 199.332 483.351 203.458 489.129C206.7 493.667 212.488 499.224 223.222 500.199C226.23 500.475 229.243 499.716 231.761 498.047C234.279 496.379 236.152 493.901 237.071 491.023C237.194 490.678 237.271 490.319 237.3 489.954C237.3 488.304 234.823 468.495 234.823 468.495L230.696 447.86L229.871 442.083L206.76 444.559Z" fill="#2F2E41"/>
<path d="M327.267 515.541C327.267 515.541 323.14 511.414 322.314 515.541C321.489 519.668 318.188 537.001 323.965 537.826C329.743 538.652 385.044 546.905 390.822 543.604C396.6 540.302 407.33 535.35 400.726 532.874C394.123 530.398 375.139 522.969 375.139 522.969C375.139 522.969 364.409 508.938 362.759 508.113C361.108 507.287 352.028 508.938 347.902 512.24C343.775 515.541 327.267 515.541 327.267 515.541Z" fill="#2F2E41"/>
<path d="M238.95 177.962C253.082 177.962 264.537 166.507 264.537 152.375C264.537 138.244 253.082 126.789 238.95 126.789C224.819 126.789 213.363 138.244 213.363 152.375C213.363 166.507 224.819 177.962 238.95 177.962Z" fill="#A0616A"/>
<path d="M236.474 210.152L226.57 199.422L215.591 177.962C215.591 177.962 207.586 175.486 205.935 179.613C204.284 183.74 174.57 196.946 174.57 196.946C174.57 196.946 181.999 266.278 178.697 272.881C175.395 279.484 169.618 305.896 174.57 308.372C179.522 310.848 202.633 308.372 210.062 311.673C217.49 314.975 238.95 314.975 244.728 310.848C250.506 306.721 252.157 303.419 257.934 305.896C262.853 308.004 274.352 235.936 277.662 214.46C277.941 212.656 277.71 210.81 276.994 209.131C276.278 207.452 275.106 206.007 273.611 204.96C266.205 199.765 252.867 190.813 250.506 191.994C247.204 193.644 236.474 210.152 236.474 210.152Z" fill="#575A89"/>
<path d="M271.966 206.85C273.904 207.335 275.648 208.401 276.962 209.905C278.277 211.41 279.1 213.28 279.321 215.266L285.997 275.357C285.997 275.357 269.49 310.848 261.236 286.912C252.982 262.976 271.966 206.85 271.966 206.85Z" fill="#575A89"/>
<path d="M270.315 281.134L288.474 276.182C288.474 276.182 291.775 299.292 295.077 299.292C298.378 299.292 283.521 312.498 276.093 310.848C268.664 309.197 257.934 303.419 257.109 299.292C256.283 295.166 264.537 277.833 264.537 277.833L270.315 281.134Z" fill="#575A89"/>
<path d="M219.635 163.413C221.375 159.577 221.072 155.102 222.511 151.143C223.281 149.023 224.531 147.11 226.163 145.553C227.795 143.996 229.765 142.837 231.919 142.167C234.073 141.498 236.352 141.335 238.58 141.692C240.807 142.049 242.921 142.916 244.758 144.226C246.608 145.545 248.463 147.398 250.722 147.147C253.154 146.875 255.323 144.162 257.559 145.156C260.038 146.259 259.368 150.7 261.879 151.726C263.201 152.266 264.763 151.435 265.525 150.228C266.192 148.959 266.555 147.553 266.587 146.12C266.933 142.6 267.246 138.874 265.719 135.684C265.077 134.602 264.518 133.474 264.045 132.308C263.778 131.219 263.671 130.097 263.727 128.978C263.713 124.84 263.411 120.524 261.329 116.949C259.018 112.981 254.747 110.444 250.291 109.337C245.834 108.23 241.166 108.4 236.591 108.787C229.027 109.427 221.14 110.8 215.181 115.501C214.371 116.093 213.674 116.825 213.123 117.663C212.6 118.659 212.231 119.728 212.027 120.834C210.739 126.08 208.807 131.147 206.276 135.92C205.059 137.943 204.063 140.092 203.308 142.329C202.676 144.603 202.719 147.193 204.042 149.147C205.119 150.738 206.84 151.586 208.193 152.887C209.533 154.175 210.161 156.654 211.645 157.63C212.941 158.482 214.494 157.88 215.816 158.783C217.513 159.943 217.636 162.485 219.635 163.413Z" fill="#2F2E41"/>
<path d="M240.601 222.533L243.077 217.58C243.077 217.58 279.394 228.31 286.823 238.215C286.823 238.215 304.981 226.659 314.886 228.31L324.791 229.961L294.251 257.198L255.458 253.897L240.601 222.533Z" fill="#F2F2F2"/>
<path d="M238.95 217.58L205.109 264.627L253.807 288.563C253.807 288.563 258.36 291.039 261.861 288.563L294.251 273.706L324.791 229.961L294.251 245.643C294.251 245.643 290.95 239.04 284.347 242.342L238.95 217.58Z" fill="#3DB4F8"/>
<path d="M290.95 300.943L297.553 283.61C297.553 283.61 312.41 264.627 304.156 255.548C295.902 246.468 286.823 281.96 286.823 281.96L290.95 300.943Z" fill="#A0616A"/>
<path d="M214.764 298.177L229.173 286.496C229.173 286.496 251.549 277.529 248.964 265.534C246.38 253.539 220.719 279.685 220.719 279.685L214.764 298.177Z" fill="#A0616A"/>
<path opacity="0.1" d="M179.11 214.691H178.284C178.284 214.691 165.491 199.422 163.014 220.056C160.538 240.691 152.284 309.197 173.744 311.673C195.205 314.149 210.474 301.356 210.474 301.356C210.474 301.356 226.157 277.42 220.379 277.42C217.583 277.42 209.98 276.165 203.046 276.595C195.648 277.054 189.001 279.137 189.427 277.007C190.252 272.88 202.22 220.469 179.11 214.691Z" fill="black"/>
<path d="M177.871 198.597L174.57 196.946C174.57 196.946 161.364 199.422 158.887 220.056C156.411 240.691 148.157 309.197 169.618 311.673C191.078 314.149 219.966 308.372 219.966 308.372C219.966 308.372 225.744 277.007 219.966 277.007C214.189 277.007 184.475 281.134 185.3 277.007C186.125 272.88 200.982 204.374 177.871 198.597Z" fill="#575A89"/>
<path d="M278.982 291.452L288.083 277.502L293.839 300.531L278.982 307.134V291.452Z" fill="#575A89"/>
<path d="M92.0087 92.5359C104.317 92.5359 114.294 82.5585 114.294 70.2507C114.294 57.943 104.317 47.9656 92.0087 47.9656C79.7007 47.9656 69.7231 57.943 69.7231 70.2507C69.7231 82.5585 79.7007 92.5359 92.0087 92.5359Z" fill="#F2F2F2"/>
<path d="M118.421 236.151H65.5962V288.975H118.421V236.151Z" fill="#F2F2F2"/>
<path d="M307.045 0L320.415 23.1576L333.785 46.3151H307.045H280.305L293.674 23.1576L307.045 0Z" fill="#F2F2F2"/>
<path d="M440.5 246C477.779 246 508 215.779 508 178.5C508 141.221 477.779 111 440.5 111C403.221 111 373 141.221 373 178.5C373 215.779 403.221 246 440.5 246Z" fill="#3F3D56"/>
<path opacity="0.1" d="M440.5 236.55C472.56 236.55 498.55 210.56 498.55 178.5C498.55 146.44 472.56 120.45 440.5 120.45C408.44 120.45 382.45 146.44 382.45 178.5C382.45 210.56 408.44 236.55 440.5 236.55Z" fill="black"/>
<path d="M437.718 212.755V204.306C433.447 204.222 429.029 202.716 426.452 200.625L428.219 195.02C431.282 197.315 434.996 198.575 438.823 198.617C444.051 198.617 447.586 195.187 447.586 190.419C447.586 185.818 444.714 182.974 439.265 180.464C431.754 177.118 427.115 173.27 427.115 165.992C427.115 159.049 431.459 153.779 438.234 152.524V144.075H442.799V152.189C446.204 152.236 449.524 153.251 452.372 155.117L450.531 160.638C447.8 158.769 444.563 157.776 441.253 157.794C435.583 157.794 433.447 161.642 433.447 164.988C433.447 169.338 436.172 171.513 442.579 174.525C450.163 178.038 453.993 182.388 453.993 189.833C453.993 196.442 449.942 202.633 442.358 204.054V212.755H437.718Z" fill="#3DB4F8"/>
</svg>
