<svg width="130" height="130" viewBox="0 0 130 130" fill="none" xmlns="http://www.w3.org/2000/svg">
<circle cx="65" cy="65" r="62" stroke="#2F80ED" stroke-width="6"/>
<path fill-rule="evenodd" clip-rule="evenodd" d="M86.4035 43.5752C83.6821 40.8489 80.4442 38.6872 76.8773 37.2152C73.3105 35.7432 69.4856 34.9903 65.6243 35.0001C49.4329 35.0001 36.252 48.1152 36.2454 64.2362C36.2454 69.3885 37.5969 74.417 40.1657 78.8527L36 94L51.573 89.9323C55.8806 92.2661 60.7066 93.4898 65.6112 93.4919H65.6243C81.8124 93.4919 94.9933 80.3769 94.9999 64.2558C95.011 60.4144 94.257 56.6088 92.7815 53.0592C91.306 49.5095 89.1382 46.2861 86.4035 43.5752ZM65.6243 88.5579H65.6145C61.2411 88.5584 56.9482 87.3873 53.1862 85.1676L52.2961 84.64L43.0551 87.0533L45.5192 78.0874L44.94 77.1689C42.4949 73.2948 41.2005 68.8113 41.2063 64.2362C41.2128 50.8378 52.1652 39.9374 65.6341 39.9374C68.8418 39.9303 72.0191 40.5564 74.982 41.7796C77.9449 43.0027 80.6347 44.7986 82.8956 47.0632C85.1686 49.3171 86.9702 51.9969 88.1964 54.9479C89.4225 57.8989 90.0488 61.0625 90.039 64.2558C90.0325 77.6542 79.0801 88.5579 65.6243 88.5579ZM79.0179 70.3557C78.2816 69.9877 74.6755 68.2226 74.0014 67.9783C73.3306 67.734 72.843 67.6135 72.3522 68.3431C71.8613 69.0726 70.4542 70.7173 70.0256 71.2058C69.5969 71.6943 69.1682 71.7529 68.4352 71.3881C67.7022 71.0234 65.3363 70.2515 62.5319 67.7633C60.3493 65.8256 58.8768 63.4351 58.4481 62.7023C58.0194 61.9695 58.4023 61.5755 58.7721 61.2107C59.1026 60.885 59.5051 60.3574 59.8716 59.9308C60.2381 59.5041 60.3591 59.2013 60.6046 58.7127C60.85 58.2242 60.7289 57.7976 60.5424 57.4328C60.3591 57.0648 58.8899 53.4693 58.2779 52.007C57.6856 50.5903 57.0803 50.7792 56.6287 50.7597C56.161 50.7406 55.6929 50.7319 55.2249 50.7336C54.8527 50.7431 54.4864 50.8289 54.1491 50.9859C53.8118 51.1428 53.5107 51.3674 53.2647 51.6455C52.5906 52.3783 50.696 54.1435 50.696 57.739C50.696 61.3345 53.3269 64.8094 53.6934 65.298C54.0599 65.7865 58.8702 73.1631 66.2329 76.3287C67.9869 77.081 69.3547 77.5304 70.4182 77.8692C72.1755 78.4261 73.7756 78.3446 75.042 78.159C76.4524 77.9506 79.3844 76.3938 79.9963 74.6873C80.6082 72.9807 80.6082 71.5184 80.425 71.2123C80.2417 70.9061 79.7476 70.7205 79.0179 70.3557Z" fill="#2F80ED"/>
</svg>
